<svg width="872" height="889" viewBox="0 0 872 889" fill="none" xmlns="http://www.w3.org/2000/svg">
<path opacity="0.37" d="M75.7001 723.411C77.6001 728.111 79.7001 732.811 82.0001 737.311C116.2 804.411 185.6 846.711 259.6 854.311C318.8 860.311 376.4 841.011 425.9 809.511C475.3 778.111 514.9 733.911 569.8 710.911C647.2 678.611 733.5 653.111 794.2 584.711C863.2 507.011 889.8 389.211 857.3 289.811C825.7 192.811 720.8 161.411 639.3 118.711C492.8 41.8107 289.9 -9.2893 137.4 81.0107C-45.2999 189.111 -12.0999 434.511 45.8001 604.811C59.0001 643.611 60.6001 685.411 75.7001 723.411Z" fill="#CCE9FF"/>
<path d="M168.9 263.611L168.6 261.711H166.7C129.7 261.711 117.7 249.811 117.6 249.711L116 247.911L114.4 249.711C114.3 249.811 102.4 261.711 65.3001 261.711H63.4001L63.1001 263.611C63.0001 264.211 55.2001 323.811 115 354.411L116 354.911L117 354.411C177 323.811 168.9 264.211 168.9 263.611ZM159.9 300.511C152.5 321.911 137.7 338.511 115.9 349.911C94.1001 338.511 79.3001 321.911 71.9001 300.511C66.5001 284.811 66.8001 271.111 67.2001 266.211C98.0001 265.811 111.7 257.611 115.9 254.211C120.1 257.511 133.8 265.811 164.6 266.211C165 271.211 165.3 284.811 159.9 300.511ZM227.6 187.011L225.5 181.511C223.6 181.311 221.8 180.811 220 180.211L215.7 184.211L203.3 175.311L205.7 169.911C204.5 168.411 203.5 166.811 202.7 165.111L196.8 164.911L194.3 149.811L199.8 147.711C200 145.811 200.5 144.011 201.1 142.211L197.1 137.911L206 125.411L211.4 127.811C212.9 126.611 214.5 125.611 216.2 124.811L216.4 118.911L231.5 116.411L233.6 121.911C235.5 122.111 237.3 122.611 239.1 123.211L243.4 119.211L255.8 128.111L253.4 133.511C254.6 135.011 255.6 136.611 256.4 138.311L262.3 138.511L264.8 153.611L259.3 155.711C259 157.611 258.6 159.411 258 161.211L262 165.511L253.1 178.011L247.7 175.611C246.2 176.811 244.6 177.811 242.9 178.611L242.7 184.511L227.6 187.011ZM219 175.411L220.2 175.911C222.4 176.811 224.8 177.311 227.2 177.511L228.5 177.611L230.3 182.311L238.6 180.911L238.8 175.911L240 175.411C242.2 174.411 244.2 173.111 246.1 171.611L247.1 170.811L251.7 172.911L256.6 166.111L253.1 162.411L253.6 161.211C254.5 159.011 255 156.611 255.2 154.211L255.3 152.911L260 151.111L258.6 142.811L253.6 142.611L253.1 141.411C252.1 139.211 250.8 137.211 249.3 135.311L248.5 134.311L250.6 129.711L243.8 124.811L240.1 128.211L238.9 127.711C236.7 126.811 234.3 126.311 231.9 126.111L230.6 126.011L228.8 121.311L220.5 122.711L220.3 127.711L219.1 128.211C216.9 129.211 214.9 130.511 213 132.011L212 132.811L207.4 130.711L202.5 137.511L206 141.211L205.5 142.411C204.6 144.611 204.1 147.011 203.9 149.411L203.8 150.711L199.1 152.511L200.5 160.811L205.5 161.011L206 162.211C207 164.411 208.3 166.411 209.8 168.311L210.6 169.311L208.5 173.911L215.3 178.811L219 175.411ZM229.4 168.411C226 168.411 222.6 167.311 219.8 165.311C212.3 160.011 210.6 149.611 215.9 142.111C221.2 134.611 231.6 132.911 239.1 138.211C242.7 140.811 245.1 144.611 245.9 149.011C246.6 153.411 245.6 157.811 243.1 161.411C240.5 165.011 236.7 167.411 232.3 168.211C231.2 168.311 230.3 168.411 229.4 168.411ZM229.4 139.311C225.5 139.311 221.7 141.111 219.3 144.511C217.4 147.211 216.6 150.511 217.2 153.811C217.8 157.111 219.5 159.911 222.2 161.811C224.9 163.711 228.2 164.511 231.5 163.911C234.8 163.311 237.6 161.611 239.5 158.911C241.4 156.211 242.2 152.911 241.6 149.611C241 146.311 239.3 143.511 236.6 141.611C234.4 140.111 231.9 139.311 229.4 139.311ZM707 350.011L702.3 337.711C697.3 337.111 692.3 336.011 687.6 334.311L678 343.311L652 324.811L657.4 312.811C654.3 308.911 651.6 304.611 649.4 300.011L636.3 299.611L631 268.111L643.3 263.411C643.9 258.411 645 253.411 646.7 248.711L637.7 239.111L656.2 213.111L668.2 218.511C672.1 215.411 676.4 212.711 681 210.511L681.4 197.411L712.9 192.111L717.6 204.411C722.6 205.011 727.6 206.111 732.3 207.811L741.9 198.811L767.9 217.311L762.5 229.311C765.6 233.211 768.3 237.511 770.5 242.111L783.6 242.511L788.9 274.011L776.6 278.711C776 283.711 774.9 288.711 773.2 293.411L782.2 303.011L763.7 329.011L751.7 323.611C747.8 326.711 743.5 329.411 738.9 331.611L738.5 344.711L707 350.011ZM686.2 327.911L687.8 328.511C693.1 330.511 698.7 331.811 704.4 332.311L706.2 332.511L710.5 343.711L732.9 339.911L733.3 327.911L734.9 327.211C740.1 324.911 745 321.811 749.4 318.111L750.7 317.011L761.7 321.911L774.9 303.411L766.7 294.611L767.3 293.011C769.3 287.711 770.6 282.111 771.1 276.411L771.2 274.611L782.4 270.311L778.6 247.911L766.6 247.511L765.9 245.911C763.6 240.711 760.5 235.811 756.8 231.411L755.7 230.111L760.6 219.111L742.1 205.911L733.3 214.111L731.7 213.511C726.4 211.511 720.8 210.211 715.1 209.711L713.3 209.611L709 198.411L686.6 202.211L686.2 214.211L684.6 214.911C679.4 217.211 674.5 220.311 670.1 224.011L668.8 225.111L657.8 220.211L644.8 238.711L653 247.511L652.4 249.111C650.4 254.411 649.1 260.011 648.6 265.711L648.5 267.511L637.3 271.811L641.1 294.211L653.1 294.611L653.8 296.211C656.1 301.411 659.2 306.311 662.9 310.711L664 312.011L659.1 323.011L677.6 336.211L686.2 327.911ZM709.8 307.311C702.5 307.311 695.2 305.111 688.8 300.611C672.5 289.011 668.7 266.311 680.3 250.011C691.9 233.711 714.6 229.911 730.9 241.511C747.2 253.111 751 275.811 739.4 292.111C732.3 302.011 721.1 307.311 709.8 307.311ZM709.9 240.411C700.3 240.411 690.8 244.911 684.9 253.311C680.1 260.011 678.3 268.111 679.6 276.211C681 284.311 685.4 291.311 692.1 296.111C705.9 305.911 725.1 302.711 734.9 288.911C739.6 282.211 741.5 274.111 740.2 266.011C738.8 257.911 734.4 250.911 727.7 246.111C722.2 242.211 716 240.411 709.9 240.411ZM220.1 575.011C215.3 561.511 209.8 546.311 215.9 530.711C224.1 509.711 206.7 498.911 191.4 489.211C178.2 481.011 165.8 473.211 170 460.311C174.6 446.311 174.3 435.511 169.1 428.411C164.7 422.411 156.9 419.211 146.5 419.311C138.2 419.411 130.8 409.211 122.9 398.511C113.6 385.911 104.1 372.911 92.1001 375.811C90.0001 376.311 88.3001 377.511 87.3001 379.411C83.1001 387.311 89.7001 406.111 96.8001 426.111C104.4 447.711 113.1 472.111 107.4 482.511C101.2 493.911 112.4 504.311 124.3 515.411C136.9 527.111 151.2 540.411 147.4 557.111C143.8 572.711 143 578.511 145.2 581.911C146.9 584.611 150.4 585.211 155.7 586.211C159.3 586.911 163.9 587.711 169.5 589.511C193.6 597.011 200.6 612.611 200.7 612.811L201 613.511L201.7 613.411C213.3 611.611 220.1 608.311 223.3 603.011C223.5 602.711 223.6 602.411 223.8 602.111C227.2 595.011 223.9 585.711 220.1 575.011Z" fill="#FFBE55"/>
<path d="M158.5 545.211C162.5 551.411 165.4 556.811 165.1 564.411C164.9 571.511 163.8 578.511 163.2 585.511C163.1 587.011 163 588.411 162.9 589.811C160.9 588.111 159 586.411 157 584.711C156.1 584.611 155.2 584.611 154.2 584.611C157 586.911 159.9 589.411 162.7 591.911C162.4 596.811 162.3 601.711 162.3 606.611C162.3 609.511 162.2 612.611 162.4 615.511C159.8 613.911 157.1 612.311 154.6 610.711C146.8 605.911 139.5 601.411 133.9 599.011C129.6 597.211 124.8 595.611 120.2 594.111C108.2 590.211 95.9001 586.211 91.8001 577.711C89.7001 573.311 89.9001 568.011 92.4001 561.611C98.7001 545.111 92.8001 542.311 82.9001 537.511C75.7001 534.011 65.9001 529.311 56.1001 517.411C51.8001 512.211 48.0001 507.711 44.6001 503.811C34.5001 491.911 28.9001 485.411 29.6001 481.611C29.8001 480.711 30.3001 479.911 31.3001 479.111C31.8001 478.711 32.4001 478.311 33.2001 477.911C37.0001 475.811 40.8001 477.411 45.1001 479.211C50.9001 481.611 58.0001 484.711 67.9001 479.611C75.7001 475.611 84.4001 471.911 89.6001 474.911C93.2001 476.911 95.3001 482.111 96.0001 490.611C96.2001 493.311 97.1001 495.211 98.6001 496.311C100.8 497.911 104.2 497.711 108.1 496.911C110.8 500.611 114.3 502.411 118.5 503.911C124.4 506.011 128.8 507.911 133.1 512.711C142.3 523.111 151.2 533.711 158.5 545.211Z" fill="#2A94F4"/>
<path d="M126.6 561.711C120.6 557.711 115.4 548.011 110.4 538.611C103.6 525.811 96.5001 512.611 86.8001 512.911C71.2001 513.311 57.3001 494.911 57.1001 494.811L55.8001 495.811C56.4001 496.611 70.4001 515.011 86.8001 514.611C95.5001 514.411 102.4 527.111 108.9 539.511C114 549.011 119.3 558.911 125.6 563.211C129.4 565.711 136.4 570.811 144.7 577.311V575.211C137.4 569.111 130.9 564.511 126.6 561.711Z" fill="white"/>
<path d="M653.6 685.611C653.6 685.611 662.6 663.211 646.2 631.411C629.7 599.611 616.4 604.511 656.1 580.011C695.8 555.511 656.3 478.511 690.1 468.711C723.9 458.911 753.2 334.211 778.9 350.111C804.6 366.011 770.3 427.111 788.7 445.511C807 463.911 809.5 487.211 771.6 506.111C733.7 525.011 798.5 597.211 747.1 619.211C695.7 641.211 710.5 727.511 653.6 685.611Z" fill="#FFBE55"/>
<path d="M669.3 709.311C669.2 709.011 663.7 680.411 681.2 643.411C699 605.711 707.5 564.511 704 533.111C702.1 516.111 713 509.511 723.5 503.111C733.9 496.811 744.6 490.211 744 473.511C743.5 458.411 749.9 423.011 750.1 421.511L752.4 421.911C752.3 422.311 745.8 458.611 746.3 473.411C746.9 491.511 735.6 498.411 724.7 505.011C714.3 511.311 704.6 517.311 706.3 532.811C709.9 564.511 701.3 606.211 683.3 644.311C666.2 680.611 671.5 708.511 671.6 708.811L669.3 709.311Z" fill="white"/>
<path d="M805.8 523.511C820.1 516.711 835.3 519.811 827.4 534.111C819.5 548.411 807.7 549.511 809.9 560.811C812.1 572.111 817.9 584.411 799.3 591.611C780.7 598.711 772 597.511 760.7 618.411C749.3 639.311 745.4 654.811 725.9 649.811C706.4 644.711 722.6 619.011 732.7 608.211C732.7 608.211 746.4 596.611 746.2 575.711C746 554.811 737.4 540.811 764.4 542.211C791.4 543.411 796.1 528.111 805.8 523.511Z" fill="#0E538C"/>
<path d="M722.8 664.411C723.6 661.711 742.4 597.011 757.8 590.011C773.5 582.811 782 564.011 785.7 553.511C790.5 539.811 811 537.111 811.8 537.011L812.1 539.311C811.9 539.311 792.2 541.911 787.9 554.211C783.3 567.511 774.5 584.911 758.8 592.111C744.4 598.711 725.3 664.411 725.1 665.111L722.8 664.411ZM227.5 612.311C196.7 604.611 196.3 588.011 195.9 572.011C195.6 558.911 195.3 546.511 178.6 538.911C156.5 528.811 156 510.111 155.5 493.611C155.1 481.311 154.8 469.711 145.6 463.411C123.5 448.311 104.8 411.711 104.6 411.311L106.3 410.411C106.5 410.811 124.9 446.911 146.7 461.811C156.7 468.611 157.1 480.711 157.4 493.511C157.9 510.211 158.4 527.611 179.4 537.111C197.1 545.211 197.5 558.811 197.8 571.911C198.2 587.911 198.6 603.111 228 610.411L227.5 612.311Z" fill="white"/>
<path d="M186 597.511H691.9V232.311C691.9 227.111 687.7 222.811 682.4 222.811H195.5C190.3 222.811 186 227.011 186 232.311V597.511Z" fill="#F7F7F7"/>
<path d="M673.07 529.425L203.87 529.425L203.87 241.125L673.07 241.125V529.425Z" fill="#0B4870" stroke="white" stroke-width="0.5" stroke-miterlimit="10"/>
<path d="M691.9 543.411H186.2L130.8 750.311H747.2L691.9 543.411Z" fill="#F2F2F2"/>
<path d="M205.3 579.711H236.4C237.7 579.711 238.7 580.711 238.4 581.811L235.4 595.311C235.2 596.111 234.4 596.711 233.4 596.711H201.8C200.5 596.711 199.5 595.711 199.8 594.511L203.3 581.011C203.5 580.311 204.3 579.711 205.3 579.711ZM250.6 579.711H274.1L271 596.811H247L250.6 579.711ZM285.8 579.711H309.3L306.9 596.811H282.9L285.8 579.711ZM321.1 579.711H344.6L342.8 596.811H318.8L321.1 579.711ZM356.3 579.711H379.8L378.7 596.811H354.7L356.3 579.711ZM391.5 579.711H415L414.6 596.811H390.6L391.5 579.711ZM673.5 579.711H638.2L642 596.811H677.9L673.5 579.711ZM626.5 579.711H603L606.1 596.811H630.1L626.5 579.711ZM591.3 579.711H567.8L570.2 596.811H594.2L591.3 579.711ZM556 579.711H532.5L534.3 596.811H558.3L556 579.711ZM520.8 579.711H497.3L498.4 596.811H522.4L520.8 579.711ZM485.6 579.711H462.1L462.5 596.811H486.5L485.6 579.711ZM426.8 579.711H450.3L450.6 596.811H426.8V579.711ZM195 609.511H244L241.2 627.111H191.2L195 609.511ZM681.1 609.511H620.5L623.9 627.111H685.8L681.1 609.511ZM608.3 609.511H584.1L586.8 627.111H611.6L608.3 609.511ZM571.9 609.511H547.7L549.7 627.111H574.5L571.9 609.511ZM535.5 609.511H511.3L512.7 627.111H537.4L535.5 609.511ZM499.1 609.511H474.9L475.6 627.111H500.3L499.1 609.511ZM187.6 640.811H237.8L234.1 658.311H183L187.6 640.811ZM250.3 640.811H275.4L272.5 658.311H246.9L250.3 640.811ZM288 640.811H476.1L476.8 658.311H285.2L288 640.811ZM488.7 640.811H513.8L515.2 658.311H489.6L488.7 640.811ZM526.3 640.811H551.4L553.5 658.311H527.9L526.3 640.811ZM564 640.811H589.1L591.8 658.311H566.3L564 640.811ZM601.6 640.811H626.7L630.1 658.311H604.6L601.6 640.811ZM639.2 640.811H689.4L694 658.311H642.9L639.2 640.811ZM462.8 609.511H438.7V627.111H463.2L462.8 609.511ZM426.4 609.511H402.1L401.4 627.111H426.2L426.4 609.511ZM390 609.511H365.7L364.3 627.111H389.1L390 609.511ZM353.6 609.511H329.3L327.2 627.111H352L353.6 609.511ZM317.2 609.511H292.9L290.1 627.111H314.9L317.2 609.511ZM280.8 609.511H256.5L253.1 627.111H277.8L280.8 609.511ZM206.4 569.011L210.4 553.811H221.8L218.1 569.011H206.4ZM233.2 553.811H256L252.9 569.011H229.6L233.2 553.811ZM267.5 553.811H290.3L287.7 569.011H264.5L267.5 553.811ZM301.7 553.811H324.5L322.5 569.011H299.3L301.7 553.811ZM335.9 553.811H358.7L357.3 569.011H334.1L335.9 553.811ZM370.1 553.811H392.9L392.1 569.011H368.9L370.1 553.811ZM404.3 553.811H427.1L426.9 569.011H403.7L404.3 553.811ZM438.5 553.811H461.3L461.7 569.011H438.5V553.811ZM472.7 553.811H495.5L496.5 569.011H473.3L472.7 553.811ZM506.9 553.811H529.8L531.3 569.011H508.1L506.9 553.811ZM541.2 553.811H564L566.2 569.011H543L541.2 553.811ZM575.4 553.811H598.2L601 569.011H577.8L575.4 553.811ZM609.6 553.811H632.4L635.8 569.011H612.6L609.6 553.811ZM643.8 553.811H666.6L670.6 569.011H647.4L643.8 553.811Z" fill="#0B4870" stroke="white" stroke-width="0.5" stroke-miterlimit="10"/>
<path d="M731.1 766.411H146.9C138 766.411 130.8 759.211 130.8 750.311H747.2C747.2 759.211 740 766.411 731.1 766.411ZM510.7 683.411C510.1 679.811 506.9 677.111 503.3 677.111H374.8C371.1 677.111 368 679.811 367.4 683.411L359.4 731.911C358.6 736.511 362.2 740.711 366.8 740.711H511.2C515.9 740.711 519.4 736.511 518.6 731.911L510.7 683.411Z" fill="#D3D3D3"/>
<path d="M235.5 265.611H287.8V271.011H235.5V265.611ZM302.5 305.911H340.2V311.311H302.5V305.911ZM346.1 305.911H371.1V311.311H346.1V305.911ZM236.1 407.311H261.1V412.711H236.1V407.311ZM376.1 305.911H436.6V311.311H376.1V305.911ZM236.1 387.011H275V392.411H236.1V387.011ZM290.3 427.411H314V432.811H290.3V427.411ZM236.1 427.411H283.1V432.811H236.1V427.411ZM236.1 447.611H262V453.011H236.1V447.611ZM298 265.611H335.1V271.011H298V265.611ZM298 326.111H335.1V331.511H298V326.111ZM279.4 346.211H295.3V351.611H279.4V346.211ZM263.6 366.711H299.2V372.111H263.6V366.711ZM304.6 366.711H353.8V372.111H304.6V366.711ZM236.1 346.411H273.2V351.811H236.1V346.411ZM236.1 366.711H258.1V372.111H236.1V366.711ZM302.8 346.411H323.6V351.811H302.8V346.411ZM236.8 467.711H257.6V473.111H236.8V467.711ZM236 305.911H273.1V311.311H236V305.911ZM268.8 407.311H305.9V412.711H268.8V407.311ZM269.3 447.611H306.4V453.011H269.3V447.611ZM335.2 447.611H372.3V453.011H335.2V447.611ZM236 326.111H288.9V331.511H236V326.111ZM483.9 265.611H521V271.011H483.9V265.611ZM351.7 467.711H388.8V473.111H351.7V467.711ZM532.5 265.611H557.3V271.011H532.5V265.611ZM616.6 285.811H641.4V291.211H616.6V285.811ZM345.1 265.611H392.4V271.011H345.1V265.611ZM529.3 285.811H576.6V291.211H529.3V285.811ZM471.3 305.911H518.6V311.311H471.3V305.911ZM409.8 326.111H457.1V331.511H409.8V326.111ZM524.5 305.911H558.1V311.311H524.5V305.911ZM427.3 265.611H474.6V271.011H427.3V265.611ZM373.4 326.111H401.1V331.511H373.4V326.111ZM351.7 407.611H379.4V413.011H351.7V407.611ZM401.1 265.611H418.4V271.011H401.1V265.611ZM345.1 326.111H362.4V331.511H345.1V326.111ZM588 285.811H605.3V291.211H588V285.811ZM235.5 285.811H262.6V291.211H235.5V285.811ZM307.8 387.111H329.2V392.511H307.8V387.111ZM269.3 285.811H278V291.211H269.3V285.811ZM448.7 285.811H521V291.211H448.7V285.811ZM379.4 447.611H451.7V453.011H379.4V447.611ZM284.4 285.811H293.3V291.211H284.4V285.811ZM418.4 285.811H442V291.211H418.4V285.811ZM442.1 305.911H465.7V311.311H442.1V305.911ZM320.5 467.711H344.1V473.111H320.5V467.711ZM361.9 285.811H412.2V291.211H361.9V285.811ZM315 407.611H344.4V413.011H315V407.611ZM313.2 447.611H327.9V453.011H313.2V447.611ZM337.4 285.811H354.7V291.211H337.4V285.811ZM279.2 305.911H296.5V311.311H279.2V305.911ZM282.6 387.111H299.9V392.511H282.6V387.111ZM300.7 285.811H330.9V291.211H300.7V285.811Z" fill="#F7F7F7"/>
<path d="M553.9 326.311C553.9 326.311 562.7 341.211 566.4 343.611C571.4 346.911 568.3 350.211 565.9 350.311C563.5 350.311 551.3 351.211 548.6 348.111C545.9 345.011 544.6 335.911 542.1 333.511C539.6 331.111 537 321.611 543.3 319.311C548.8 317.211 553.9 326.311 553.9 326.311Z" fill="#FFB750"/>
<path d="M550 319.811C550 319.811 560.1 337.311 561.8 339.811C563.5 342.411 558.5 342.411 555.4 341.211C552.3 340.011 544.5 327.511 543.4 325.211C542.1 322.511 543.2 319.411 543.2 319.411L550 319.811Z" fill="#FFE3CA"/>
<path d="M539.8 329.111L542.2 347.011L543.4 347.111L543 334.211L539.8 329.111ZM466.6 326.311C466.6 326.311 475.4 341.211 479.1 343.611C484.1 346.911 481 350.211 478.6 350.311C476.2 350.311 464 351.211 461.3 348.111C458.6 345.011 457.3 335.911 454.8 333.511C452.3 331.111 449.6 321.311 456 319.311C461.6 317.511 466.6 326.311 466.6 326.311Z" fill="#FFB750"/>
<path d="M463.3 319.811C463.3 319.811 472.8 337.211 474.6 339.811C476.3 342.411 471.3 342.411 468.2 341.211C465.1 340.011 457.3 327.511 456.2 325.211C454.9 322.511 456 319.411 456 319.411L463.3 319.811Z" fill="#FFE3CA"/>
<path d="M452.6 329.111L454.9 347.011L456.2 347.111L455.8 334.211L452.6 329.111Z" fill="#FFB750"/>
<path d="M427.6 190.611L507.2 226.911C507.2 226.911 516.1 229.811 517.1 239.711C520.2 270.511 543.2 319.311 543.2 319.311C550.6 322.911 550 319.811 550 319.811C545.3 304.811 539.7 243.211 537.6 218.511C537.2 213.311 536.9 209.711 536.8 208.511C536.8 207.711 535.9 206.711 534.4 205.511C523.5 196.611 478.5 178.311 478.5 178.311C445 177.411 427.6 190.611 427.6 190.611Z" fill="#FFE3CA"/>
<path d="M412.6 206.211C415.1 227.711 445.8 225.311 445.8 225.311H483C483 225.311 473.2 247.111 469.4 265.411C465.4 284.911 455.9 319.311 455.9 319.311C455.9 319.311 456.5 320.511 463.3 319.811C463.3 319.811 492.5 261.611 503.7 246.911C506.1 243.811 513 226.611 514.2 216.411C514.6 213.011 514.4 210.311 513.1 209.211C511.8 208.111 508.8 206.111 504.9 203.611C493.2 196.211 473 184.911 461.7 182.411C446.6 179.011 422.7 172.611 422.7 172.611C422.7 172.611 410.1 184.711 412.6 206.211Z" fill="#FFE3CA"/>
<path d="M437.9 40.4107C437.9 40.4107 432.3 29.8107 435 18.6107C437.7 7.3107 448.2 -3.8893 463.5 1.3107C478.8 6.5107 491.2 18.3107 482 32.1107C472.8 45.8107 490.3 52.1107 485.8 58.6107C481.3 65.1107 483 72.0107 484.9 73.5107C486.8 75.0107 492.9 80.4107 492.2 86.9107C491.5 93.3107 462.5 68.2107 462.5 68.2107C462.5 68.2107 446.8 36.3107 437.9 40.4107Z" fill="#0E538C"/>
<path d="M484.6 175.611C484.6 175.611 482.3 186.811 422.8 172.711C422.8 172.711 442.7 166.111 484.6 175.611Z" fill="#EB4747"/>
<path d="M422.1 175.811C421.2 177.611 420.3 179.311 419.3 181.111C441 181.711 462.8 182.411 484.5 183.011C481.1 171.511 482.2 155.911 482.8 144.111C483.5 129.611 491.5 119.611 490.7 105.011C495 105.711 495.7 105.811 500 106.511C493.4 87.7107 491.2 78.4107 470.7 71.2107C464 68.8107 459.7 68.4107 452.5 69.0107C428.8 71.0107 421.7 71.2107 410 92.7107C428.2 95.6107 425.2 102.111 430.7 120.311C433.4 129.111 436.2 139.011 434.8 148.311C433.4 157.411 422.1 167.511 422.1 175.811Z" fill="white"/>
<path d="M459.9 75.7106C450.2 73.9106 452.3 68.5107 452.3 68.5107C452.3 68.5107 452.7 65.5106 452.9 61.6106C452.9 60.6106 453 59.6107 453 58.5107C453 56.9107 452.9 55.3106 452.7 53.7106C451.9 47.2106 470.3 51.1106 470.3 51.1106C470.3 51.1106 469.2 64.3106 471.8 68.2106C474.3 72.2106 469.6 77.6106 459.9 75.7106Z" fill="#FFE3CA"/>
<path d="M441.4 68.5107C441.4 68.5107 461 91.1107 468.2 96.3107C468.2 96.3107 476.5 88.8107 471.4 69.0107C471.4 69.0107 462 64.2107 441.4 68.5107ZM442 14.1107C442 14.1107 431.8 33.7107 441.9 52.2107C452 70.7107 471.8 44.1107 473 41.0107C474.3 37.9107 481.1 20.2107 467.6 14.9107C454.1 9.51067 444.9 8.81067 442 14.1107Z" fill="#FFE3CA"/>
<path d="M461.6 54.2107C461.6 54.2107 459.8 58.1107 452.9 61.6107C452.9 60.6107 453 59.6107 453 58.5107C453 58.5107 457.7 58.0107 461.6 54.2107Z" fill="#FCD2B1"/>
<path d="M358.9 158.211C358.9 158.211 354.1 160.311 351.8 159.411C349.5 158.411 346 158.211 344.9 158.211C343.4 158.211 338.7 156.511 338.8 158.411C338.9 160.211 346.4 161.511 347.9 162.111C349.4 162.711 343.3 166.011 342.7 167.511C342.1 169.011 349.1 178.811 353 176.011C356.9 173.211 359 167.611 359.8 167.211C360.6 166.811 362.7 165.311 362.7 165.311L358.9 158.211Z" fill="#FFE3CA"/>
<path d="M343.5 166.611C343.5 166.611 332.2 176.011 332 177.311C331.8 178.611 332.4 179.211 333.5 178.311C334.6 177.511 344.7 169.511 344.7 169.511C344.7 169.511 333.4 182.911 333 183.911C332.8 184.511 333.9 185.711 334.5 185.311C335.1 184.911 347.2 172.311 347.2 172.311C347.2 172.311 336.6 184.811 336.6 185.811C336.5 186.611 337.8 187.511 338.7 186.611C339.6 185.711 350.1 174.711 350.1 174.711C350.1 174.711 343 184.311 343.5 185.211C343.8 185.711 344.7 186.811 346.4 184.311C348.1 181.811 352.9 176.211 352.9 176.211L343.5 166.611Z" fill="#FFE3CA"/>
<path d="M479.1 225.211H445.8C445.8 225.211 415.1 227.711 412.6 206.111C410.1 184.611 422.7 172.611 422.7 172.611C422.7 172.611 438.9 176.911 453.1 180.311C460.2 178.811 468.7 177.811 478.7 178.111C478.7 178.111 538.7 197.911 536.9 208.411C536.9 208.511 511.8 195.111 479.1 225.211Z" fill="#0E538C"/>
<path d="M457.4 188.011L521 187.011L488.9 203.311L457.4 188.011Z" fill="#F2F2F2"/>
<path d="M477.2 179.811C477.2 179.811 462.9 185.311 445.4 180.311L444.6 173.811L480.7 175.811L477.2 179.811Z" fill="white"/>
<path d="M488.9 203.311L457.4 191.111V188.011L491.4 200.211L488.9 203.311Z" fill="#D3D3D3"/>
<path d="M476.9 182.911C476.7 185.211 479.1 186.911 481.3 186.011L485 184.411C486.1 183.911 486.8 182.811 486.6 181.611C485.1 172.011 481.8 134.611 486.6 128.111C488.4 125.711 489.5 123.611 490.1 121.811C493.3 130.011 497.2 140.611 498.8 146.311L528.8 186.311L538.9 188.911C526.3 158.611 516.2 142.611 516.2 142.611C514.2 137.311 508.6 121.311 503.6 107.111C500.4 98.1107 497.6 89.8107 496 85.4107C495.2 83.1107 493.7 81.2107 491.6 80.0107C486.9 77.2107 479.2 72.8107 472.2 69.4107H472.1C471.9 69.3107 471.7 69.2107 471.4 69.1107C484.8 89.2107 479.6 146.311 476.9 182.911C476.9 182.811 476.9 182.811 476.9 182.911ZM427.3 70.7107C423 71.4107 412.4 81.7107 406.8 92.1107C400.4 104.011 393.8 117.511 388.9 121.911C379.9 130.111 354.6 159.011 353.4 158.311C352.9 158.011 360.3 166.911 361.3 167.311C361.8 167.511 402.8 131.911 406.8 126.511C410.5 121.411 420.5 99.8107 423.5 100.311C423.7 100.811 427.4 108.711 430.8 120.211C430.9 120.411 430.9 120.611 431 120.811C433.4 128.811 433.2 137.611 431.9 147.411C430.9 154.811 425.4 166.911 422.1 172.811C421.7 173.511 421.8 174.911 422.2 175.911C422.5 176.511 422.8 177.011 423.3 177.211L435.4 181.711L438.2 182.711C440.2 183.511 442.4 183.111 444 181.911C445.3 181.011 446.3 179.511 446.5 177.711C449.2 157.111 452.6 136.011 455.3 128.111C467.2 93.3107 450.7 67.1107 450.7 67.1107C450.7 67.1107 431.1 69.3107 427.3 70.7107Z" fill="#FFBE55"/>
<path d="M488.9 203.311L507.8 151.711L568.7 152.711L550.7 200.311L488.9 203.311Z" fill="#FFBE55"/>
<path d="M527.3 174.511C525.4 178.211 526 182.311 528.6 183.511C531.2 184.811 534.7 182.811 536.6 179.111C538.5 175.411 537.9 171.311 535.3 170.111C532.7 168.811 529.1 170.811 527.3 174.511Z" fill="#F2F0F0"/>
<path d="M490.3 77.0107C485.8 70.2107 482.6 64.8107 482.2 55.1107C481.9 48.7107 480.5 40.0107 476.1 35.7107C480.7 23.7107 475.3 20.1107 473.1 16.2107C470.4 11.3107 450.4 -0.489275 442.5 11.9107C434.6 24.2107 437.4 37.1107 437.4 37.1107C438.2 30.3107 445.2 21.1107 445.2 21.1107C446.3 28.2107 461 39.8107 467.4 44.5107C467.3 44.6107 467.2 44.8107 467.2 44.9107C463.6 50.1107 468.1 55.3107 468.9 60.8107C469.7 66.3107 453.8 81.1107 471.5 88.5107C489.2 96.0107 494.8 83.7107 490.3 77.0107ZM168.4 659.511C168.4 659.511 168 663.711 148.4 663.711C128.8 663.711 100.3 658.611 100.3 658.611L145.8 654.211C145.8 654.211 163.3 653.311 168.4 659.511Z" fill="#0E538C"/>
<path d="M118.5 661.011C107.4 661.011 102.7 666.711 98.3001 668.511C93.9001 670.311 89.5001 673.011 89.5001 672.911C92.0001 668.011 95.5001 667.911 97.3001 666.311C99.1001 664.711 98.6001 665.511 94.7001 665.211C92.5001 665.011 88.5001 669.111 85.7001 671.411C83.2001 673.311 81.7001 673.511 81.7001 673.511C81.7001 673.511 84.6001 669.411 88.2001 666.111C92.6001 662.111 98.1001 658.811 99.4001 658.211C101.8 657.211 109.2 657.011 114.4 657.711C120.4 658.511 126.5 661.011 118.5 661.011Z" fill="#0E538C"/>
<path d="M100.1 658.411C100.1 658.411 91.6001 660.611 90.1001 661.811C89.1001 662.611 84.7001 667.311 84.7001 667.311C84.7001 667.311 87.9001 666.811 89.7001 665.011C91.6001 663.111 100.1 658.411 100.1 658.411ZM152.3 650.911C152.3 650.911 173.7 652.311 172.2 665.511C171.4 673.011 166.5 675.611 160 675.011C148 674.011 134.4 672.211 134.4 672.211L128.3 651.711L152.3 650.911Z" fill="#0E538C"/>
<path d="M156.8 652.711L177.8 585.011C177.8 585.011 180.9 575.111 186 576.911C193.3 579.611 189.7 587.711 189.1 592.511C187.8 602.311 188.7 606.611 181.9 630.211C177.7 644.811 174.1 661.611 170.5 671.211C168 677.811 163.7 668.311 157.2 665.711C145 660.811 156.8 652.711 156.8 652.711ZM158.4 548.211C162.5 560.011 175.2 566.111 186.9 561.811C198.5 557.511 204.7 544.411 200.6 532.611C196.5 520.811 183.8 514.711 172.1 519.011C160.5 523.311 154.3 536.411 158.4 548.211Z" fill="#0E538C"/>
<path d="M135.4 549.311C141.8 558.911 154.6 561.311 163.9 554.711L162.6 543.411C171.9 536.711 174.2 523.511 167.8 513.911L163.4 507.411C157 497.811 144.2 495.411 134.9 502.011L130.7 505.011C121.4 511.711 119.1 524.911 125.5 534.511L135.4 549.311Z" fill="#0E538C"/>
<path d="M127 517.811C128.1 519.411 129.3 520.911 130.7 522.411C139.9 532.411 152.2 536.211 160 532.111C163.6 537.011 167.7 540.911 171.4 543.911C175.7 547.411 186.7 548.811 186.7 548.811C193.1 555.811 169.1 596.711 167.4 596.511C163.9 596.211 159.4 573.611 162.7 565.411C164.2 561.711 166.6 557.311 165.9 555.311C163.4 548.411 159.9 549.611 159.9 549.611C159.9 549.611 155.3 555.011 151.7 554.811C148 554.511 141.6 548.711 141.3 548.611C140.2 547.711 139.2 546.611 138.3 545.311L128.7 530.911C126.2 526.911 125.6 522.111 127 517.811Z" fill="#FFE3CA"/>
<path d="M200.4 690.111C200.4 690.111 192.6 699.511 190.2 700.511C187 701.911 177.2 698.911 177.2 698.911C177.2 698.911 174.6 655.811 171.6 639.011C168.6 622.211 164.2 617.811 164 612.511C163.7 604.011 156.6 600.611 157.8 594.011C159 587.411 161.1 563.811 161.8 566.911C167.9 593.711 175.4 571.411 177.1 567.911C178 566.011 200.4 690.111 200.4 690.111Z" fill="#F2F0F0"/>
<path d="M164.9 558.911C164.9 558.911 155.4 569.311 156.1 573.411C156.7 577.511 152 590.311 156.7 608.111C162 628.411 164.8 642.211 165.8 655.511C166.8 668.811 162.3 681.011 164.1 697.311C165.5 710.111 168.4 710.811 168.4 710.811C168.4 710.811 174.1 712.211 178.1 707.211C182.1 702.311 176.1 658.711 174.1 647.911C172.1 637.011 165.7 611.611 164 604.111C161.9 594.911 162.3 585.511 162.4 582.811C162.9 573.311 164.1 567.411 165.1 563.811C165.2 563.311 165.7 557.711 164.9 558.911ZM181.5 571.111C186.7 586.111 202.9 593.811 217.7 588.311C232.5 582.811 240.3 566.211 235.1 551.211C229.9 536.211 213.7 528.511 198.9 534.011C184.1 539.411 176.3 556.111 181.5 571.111Z" fill="#0E538C"/>
<path d="M130.6 828.911L135.9 871.211L112.9 882.111L100.2 884.911L122.8 867.411L115.4 829.211L130.6 828.911Z" fill="#FCBAA2"/>
<path d="M137.4 877.611L132.4 878.911L129 875.811L110.6 885.011L94.3001 888.911C94.3001 888.911 94.1001 887.611 94.6001 886.911C96.6001 884.211 108.1 878.311 108.1 878.311C108.1 878.311 108.3 882.211 109.9 882.311C111.5 882.411 125.6 875.011 128.9 873.011C134.5 869.511 135.6 867.211 136 867.511C137.2 868.111 137.4 877.611 137.4 877.611Z" fill="#0E538C"/>
<path d="M75.1001 770.111L56.8001 806.111L31.6001 804.911L19.0001 801.211L46.9001 796.511L62.1001 765.711L75.1001 770.111Z" fill="#FCBAA2"/>
<path d="M55.3001 812.511L50.3001 811.311L48.7001 806.911L26.0001 806.611L12.5001 803.411C12.5001 803.411 14.1001 801.611 15.1001 801.111C18.1001 799.811 28.8001 799.211 28.8001 799.211C28.8001 799.211 27.7001 802.311 29.1001 803.111C30.5001 804.011 46.1001 804.511 49.9001 804.211C56.5001 803.711 58.4001 802.311 58.6001 802.711C59.3001 804.111 55.3001 812.511 55.3001 812.511Z" fill="#0E538C"/>
<path d="M208.6 662.411L195 668.511L195.1 687.211L101.4 671.911C101.4 671.911 92.5001 669.011 86.8001 683.711C78.7001 704.511 58.1001 769.211 58.1001 769.211L71.1001 783.311L112 710.211C112 710.211 195.8 750.911 223.4 742.111C234 738.711 242.1 719.311 240.6 699.711C239.4 684.311 236.4 670.211 236.4 670.211L208.6 662.411Z" fill="#FFB750"/>
<path d="M196.7 741.711L129.6 736.711L135.4 843.911L115.6 844.611L101 719.011C101 719.011 104.9 700.311 117.7 703.111C130.6 706.011 161.6 730.611 196.7 741.711Z" fill="#FFB750"/>
<path d="M241.9 768.611C241.9 768.611 206.7 729.111 197.6 706.811C186.7 680.111 187.6 646.611 185.6 635.511C181.9 615.111 177.4 575.511 176.6 570.611C175.7 565.711 178.8 560.211 178.8 560.211C178.8 560.211 176.5 545.411 183.1 547.011C192.6 549.311 202 554.511 205.3 556.111C211.5 558.911 224.2 633.511 224.9 637.111C227.5 650.111 237 661.911 243.8 674.011C259.8 702.711 263.9 736.611 263.9 736.611C263.9 736.611 261.9 761.411 241.9 768.611Z" fill="#2A94F4"/>
<path d="M205.6 665.311C205.6 665.311 205.3 670.111 182.9 669.011C160.5 667.811 127.7 660.311 127.7 660.311L179.6 657.911C179.6 657.911 199.5 658.011 205.6 665.311Z" fill="#FFE3CA"/>
<path d="M145.3 662.911C134.6 662.711 130 668.211 125.8 669.911C121.6 671.611 117.3 674.111 117.3 674.111C119.7 669.411 123.1 669.311 124.9 667.811C126.6 666.311 126.2 667.111 122.4 666.711C120.2 666.511 116.4 670.411 113.7 672.611C111.3 674.511 109.8 674.611 109.8 674.611C109.8 674.611 112.6 670.611 116.1 667.411C120.4 663.611 125.6 660.411 126.9 659.911C129.2 659.011 136.3 658.911 141.4 659.711C147.1 660.511 153 663.111 145.3 662.911Z" fill="#FFE3CA"/>
<path d="M127.4 660.011C127.4 660.011 119.2 662.011 117.8 663.111C116.8 663.911 112.6 668.411 112.6 668.411C112.6 668.411 115.6 667.911 117.4 666.211C119.2 664.611 127.4 660.011 127.4 660.011Z" fill="#FFE3CA"/>
<path d="M187.7 660.011L220.9 642.511C220.9 642.511 221 663.711 221.2 671.811C221.4 679.911 224.8 691.311 218.4 693.011C212 694.711 208.7 693.811 215.3 697.711C221.9 701.511 220.4 705.511 217.9 708.811C215.4 712.111 226.3 745.711 223.7 747.611C213.4 734.611 202.3 718.511 197.5 706.811C191.4 691.611 189 674.211 187.7 660.011Z" fill="#0E538C"/>
<path d="M198.4 651.511L197.1 583.911C197.1 583.911 197.2 562.811 197.6 556.611C198 550.211 208.9 557.711 208.9 557.711C208.9 557.711 224.2 578.411 224.5 628.311C224.7 661.711 222.9 679.111 207.5 677.711C193.2 676.411 176.9 674.211 176.9 674.211L169.8 655.711L198.4 651.511Z" fill="#2A94F4"/>
<path d="M195 687.211L80.7001 672.911L81.0001 670.511L195.3 684.811L195 687.211Z" fill="#D3D3D3"/>
<path d="M144.9 678.411C144.7 680.311 143.2 681.711 141.6 681.511L83.0001 674.211C81.4001 674.011 79.4001 672.511 78.0001 667.511L55.4001 609.011C55.7001 606.611 57.6001 605.411 59.2001 606.011L119.1 615.411C120.7 616.011 121.8 617.411 122.4 620.011L144.9 678.411Z" fill="#D3D3D3"/>
<path d="M137.5 680.011L138.1 680.111L195.3 687.311C193.1 688.211 189.6 688.511 185.7 688.011L137.8 682.011L137.2 681.911L89.3001 675.911C85.4001 675.411 82.1001 674.211 80.1001 672.911L137.5 680.011Z" fill="#D3D3D3"/>
<path d="M198.4 651.511L197.1 583.911C197.1 583.911 198.1 578.211 200.1 573.111C200.6 580.511 204 633.811 204.4 640.811C204.9 648.411 211.1 649.211 212.4 651.711C213.8 654.111 212.6 654.611 208 653.711C203.5 652.711 205.1 653.511 206.1 655.911C207.1 658.411 204.6 657.711 195.8 654.511C189.4 652.211 177.1 654.511 170.9 655.911L198.4 651.511Z" fill="#0E538C"/>
<path d="M593.6 485.611C582.6 488.511 562.3 498.711 558 516.211C551.6 542.511 564.4 581.011 544.2 618.811C537.7 630.811 655.9 647.011 655.9 647.011L678.7 514.211C678.7 514.211 650.2 485.411 644.4 483.411C632.3 479.411 615.6 479.811 593.6 485.611Z" fill="#CCE9FF"/>
<path d="M678.8 514.311C682.9 524.911 693.3 588.011 681.7 602.911C680.4 604.611 687.7 607.311 686.4 615.111C686.2 616.411 684 622.711 684 622.711L674.6 625.211L654.1 601.511C654.1 601.511 662.4 588.611 673.3 539.711C676.5 525.311 677.9 511.911 678.8 514.311Z" fill="#2A94F4"/>
<path d="M601.2 589.711C601.2 589.711 611.1 615.811 635 622.811C639.1 624.011 641.7 628.611 639.7 630.111C637.1 632.011 633.7 632.411 627.7 632.411C615.2 632.411 598.2 628.411 586.5 616.611C569.1 599.211 563.6 591.211 565.4 582.511C567 573.611 601.2 589.711 601.2 589.711Z" fill="#FCD2B1"/>
<path d="M561.4 507.411C556.3 516.011 553.4 529.811 553.5 549.611C553.5 564.911 566.3 590.011 568.2 597.711C568.5 599.011 569.3 604.511 569.3 604.511L583.4 618.911L611.7 599.011L603.1 585.311L600.5 585.611C600.5 585.611 598.9 578.011 599.3 575.111C599.7 572.211 591.5 532.711 587.4 507.411C585.1 492.711 566.4 498.911 561.4 507.411Z" fill="#2A94F4"/>
<path d="M586.8 585.011L595.1 582.411L598.5 581.511C598.7 583.911 600.7 585.511 600.7 585.511L594.2 586.311L586.7 588.711L577.9 595.011L586.8 585.011Z" fill="#0E538C"/>
<path d="M633.2 622.711L647.6 618.611C647.6 618.611 651.7 624.311 650.9 625.711C650.1 627.111 650.9 635.511 650.9 635.511L643.9 641.711L638.2 639.711C638.2 639.711 637.8 637.111 639.7 636.911C641.7 636.611 638.4 635.211 637.4 634.611C636.4 633.911 628.1 629.511 633.2 622.711Z" fill="#FCD2B1"/>
<path d="M611 484.311C609.4 489.011 611.8 494.311 616.4 495.911L624.6 498.911C629.2 500.611 634.2 498.011 635.8 493.311L643.1 471.711C644.7 467.011 642.3 461.711 637.7 460.011L629.5 457.011C624.9 455.311 619.9 457.911 618.3 462.611L611 484.311Z" fill="#FF957E"/>
<path d="M646.8 503.311C646 506.411 642.8 508.311 639.8 507.411L615.1 500.311C612.1 499.411 610.3 496.211 611.1 493.011L621.2 455.111C622 452.011 625.2 450.111 628.2 451.011L652.9 458.011C655.9 458.911 657.7 462.111 656.9 465.311L646.8 503.311Z" fill="#FCD2B1"/>
<path d="M659.6 461.511C659.8 461.311 657.3 458.511 658.6 453.011C660.3 445.611 654.8 442.611 650.7 442.511C648.3 442.411 640.2 446.311 635.9 447.611C631.6 448.911 632 447.211 624.2 445.811C619 444.811 617.8 447.711 616 451.711C614.2 455.811 614 471.411 614 471.411C614.7 472.411 615.8 473.211 616.5 472.411C617.2 471.611 620 459.111 622.3 455.411C624.5 451.711 633.5 457.611 638.4 460.511C643.2 463.411 647.5 463.911 655.2 462.311C656.1 463.311 656.9 464.411 656.9 464.911C656.9 465.911 654.7 473.011 654.7 473.011C654.7 473.011 659 470.311 660.2 468.211C660.8 467.511 661 464.111 659.6 461.511Z" fill="#FFBE55"/>
<path d="M618.9 485.111C618.6 486.111 617.6 486.811 616.6 486.511L611.3 485.011C610.3 484.711 609.7 483.611 610 482.611L612.7 472.511C613 471.511 614 470.811 615 471.111L620.3 472.611C621.3 472.911 621.9 474.011 621.6 475.011L618.9 485.111Z" fill="#FCD2B1"/>
<path d="M615.6 475.511C615.6 475.511 611.6 490.411 610.3 495.411C609.1 499.911 608.2 510.311 632.7 517.311C647.2 521.411 649.6 510.211 650.6 506.611C651.3 503.811 650.5 494.711 649.4 492.711C649.4 492.611 647.8 498.911 647.8 498.911C647.8 498.911 646.4 492.011 639.5 490.111C628.4 486.911 624 493.011 619.2 491.411C615.4 490.111 614.3 482.911 615.6 475.511Z" fill="#FFBE55"/>
<path d="M632.3 498.411L639.9 500.611C640.9 500.911 642 500.311 642.2 499.211L642.5 498.111L631.2 494.911L630.9 496.011C630.7 497.111 631.3 498.111 632.3 498.411Z" fill="#FCD2B1"/>
<path d="M752.8 649.911C749.3 660.011 687.7 697.111 667 694.911L604.7 698.011C551.8 691.311 526.7 606.111 526.7 606.111C528.8 584.711 581 615.711 599.6 625.311C629 640.511 647.7 641.311 647.7 641.311C667.4 643.411 690.2 627.611 715.1 627.111C742.4 626.411 758.4 634.011 752.8 649.911Z" fill="#0B4870"/>
<path d="M617.4 639.711C617.4 639.611 617.4 639.611 617.4 639.711V636.911L724.5 634.911V637.711L724.2 638.211C722.9 640.611 720.4 641.011 717.6 641.111L624.4 642.911C621.6 643.011 619.1 642.611 617.7 640.311L617.4 639.711Z" fill="#D3D3D3"/>
<path d="M643.2 639.611L642.9 640.111C642.5 640.711 642 641.211 641.4 641.511L625.1 641.811C622.4 641.911 620 641.611 618.6 639.711L618.3 639.311L618.2 639.211V637.911L643 637.411L643.2 639.611ZM657.7 638.611L711.2 637.611V635.711L657.6 636.811L657.7 638.611ZM643.8 636.311L656.7 581.511C657 580.111 658.4 578.911 659.8 578.811L735 577.411C736.4 577.411 737.2 578.511 736.9 580.011L724 634.811L643.8 636.311Z" fill="#D3D3D3"/>
<path d="M595.3 712.111C602.7 713.411 608.4 704.511 608.4 704.511L627.6 688.911L623.5 678.311L586.1 695.711C586.1 695.711 587.8 710.811 595.3 712.111Z" fill="#FCD2B1"/>
<path d="M608.3 703.911C608.3 703.911 608.3 704.811 606.9 708.911C605.5 713.011 603.7 714.411 601.9 715.011C594.7 717.211 589.6 716.111 572.4 719.511C555.2 722.911 550 720.311 545 712.111C540 703.911 545.2 697.411 553.6 696.811C565.7 695.911 572.5 697.311 578.8 696.311C585.4 695.311 585.8 693.711 589.7 691.211C593.3 688.911 596.7 702.711 593.3 705.911C590.2 708.711 605.8 709.111 608.3 703.911Z" fill="#FFB750"/>
<path d="M604.7 711.811C597.6 714.011 592.4 712.911 575.2 716.311C558 719.711 552.8 717.111 547.8 708.911C545.5 705.111 545.4 701.711 546.7 699.111C542.9 701.811 541.6 706.511 545 712.111C550 720.311 555.2 722.911 572.4 719.511C589.6 716.111 594.8 717.211 601.9 715.011C603.3 714.611 604.7 713.611 605.9 711.311C605.5 711.511 605.1 711.711 604.7 711.811Z" fill="white"/>
<path d="M608.3 704.211V704.011C608.3 704.111 608.2 704.211 608.1 704.311C608.2 704.211 608.3 704.211 608.3 704.211Z" fill="#E9D6B8"/>
<path d="M571.2 710.311C570.7 710.511 570.2 709.411 570 707.911C569.7 704.811 569 701.811 568 698.711C567.5 697.211 567.5 695.911 568.1 695.711C568.7 695.511 569.7 696.611 570.1 698.111C571.1 701.111 571.7 704.211 572 707.211C572.2 708.711 571.7 710.111 571.2 710.311ZM576.5 709.311C575.9 709.411 575.4 708.411 575.2 707.011C574.9 704.111 574.2 701.211 573.2 698.411C572.7 697.011 572.7 695.811 573.4 695.711C574 695.611 575 696.711 575.5 698.111C576.4 700.911 577.1 703.811 577.4 706.611C577.5 708.011 577.1 709.211 576.5 709.311ZM582.1 709.111C581.5 709.211 580.9 708.111 580.7 706.611C580.2 703.611 579.5 700.711 578.4 697.711C577.9 696.211 577.9 695.011 578.5 695.011C579.2 695.011 580.2 696.111 580.7 697.611C581.8 700.511 582.5 703.511 582.9 706.411C583.1 707.811 582.7 709.011 582.1 709.111Z" fill="white"/>
<path d="M596.6 686.611C596.6 686.611 728.3 630.511 735.8 630.411C761.2 630.211 755.4 656.811 742.5 669.411C727.3 684.211 611.7 711.311 611.7 711.311L596.6 686.611Z" fill="#0E538C"/>
<path d="M648.8 696.411L612.8 661.011L628.2 645.311L667.4 688.111L648.8 696.411Z" fill="#FCD2B1"/>
<path d="M656.2 668.611C656.2 668.611 564.7 581.711 558.6 579.111C537.7 570.311 524.8 594.211 525.5 602.511C526.5 613.211 619.4 700.211 619.4 700.211L656.2 668.611Z" fill="#0E538C"/>
<path d="M710.4 699.111C712.5 701.111 712.9 707.211 712.9 707.211C712.9 707.211 682.4 719.211 671.7 719.411C668.9 719.511 663.9 718.311 659.1 716.911C658.3 716.711 656.4 714.511 655.6 714.311C654.1 713.911 653.8 715.311 652.6 714.911C649.4 713.811 647 712.911 646.9 712.711C640.4 698.511 642.6 691.511 642.6 691.511C642.6 691.511 656.6 695.711 654.2 692.411C649.1 685.411 663.8 678.311 667 682.011C680.2 696.911 704.2 693.211 710.4 699.111Z" fill="#FFB750"/>
<path d="M712.1 702.111C702.7 706.011 683 713.911 679.1 714.211C663 715.411 651.8 709.511 644.3 706.011C645 708.011 645.8 710.311 646.9 712.711C647 712.911 649.3 713.811 652.6 714.911C653.9 715.311 654.2 713.811 655.6 714.311C656.4 714.511 658.2 716.711 659.1 716.911C663.9 718.311 668.9 719.411 671.7 719.411C682.4 719.211 712.9 707.211 712.9 707.211C712.9 707.211 712.9 704.411 712.1 702.111ZM690.6 692.911C690.9 693.511 689.7 694.111 688 694.511C684.5 695.211 681.1 696.311 677.7 697.711C676 698.411 674.5 698.611 674.3 698.011C674.1 697.411 675.2 696.311 676.9 695.611C680.2 694.211 683.7 693.211 687.1 692.511C688.7 692.011 690.3 692.311 690.6 692.911ZM683.7 690.411C684 691.011 682.8 691.811 681.1 692.311C677.7 693.311 674.4 694.711 671.1 696.411C669.5 697.211 668 697.511 667.8 696.911C667.6 696.311 668.7 695.011 670.3 694.211C673.5 692.611 676.8 691.211 680.2 690.311C681.9 689.611 683.5 689.811 683.7 690.411ZM677.1 688.211C677.3 688.811 676.2 689.711 674.6 690.311C671.3 691.611 668.1 693.211 665 695.111C663.5 696.111 662.1 696.411 661.9 695.711C661.7 695.111 662.7 693.711 664.3 692.711C667.4 690.811 670.6 689.211 673.8 688.011C675.4 687.511 676.9 687.611 677.1 688.211Z" fill="white"/>
</svg>
