<svg width="300" height="301" viewBox="0 0 300 301" fill="none" xmlns="http://www.w3.org/2000/svg">
<path d="M62.6987 17.972V28.1439H279.73V17.972C279.73 17.3504 279.483 16.7543 279.044 16.3147C278.604 15.8752 278.008 15.6283 277.386 15.6283H65.0425C64.4209 15.6283 63.8247 15.8752 63.3852 16.3147C62.9457 16.7543 62.6987 17.3504 62.6987 17.972Z" fill="#FED44A"/>
<path d="M69.9761 144.207C69.9761 144.207 64.7026 152.012 68.2886 163.613C68.2886 163.613 63.0151 199.051 60.4839 206.644C57.9526 214.238 43.3276 255.582 43.3276 255.582L69.9761 262.613L87.8003 203.41L86.0776 262.613H113.218C113.218 262.613 113.921 173.351 107.171 154.42L100.606 147.096L99.6485 148.004L96.1909 144.207H69.9761Z" fill="#2CA68F"/>
<path d="M92.5465 75.5468C92.5465 75.5468 101.511 75.8632 99.2965 80.9257C97.0817 85.9882 91.2809 82.7187 91.2809 82.7187C91.2809 82.7187 92.441 91.5781 87.5895 87.8867C82.7379 84.1953 84.109 93.371 88.4332 92.9492C88.4332 92.9492 92.5465 101.598 89.5934 104.762C86.6402 107.926 82.316 105.184 81.2613 101.914C81.2613 101.914 75.1442 103.602 74.9332 96.6406C74.7223 89.6796 72.2965 88.9414 75.777 86.4101C79.2574 83.8789 81.7887 71.8554 92.5465 75.5468Z" fill="black"/>
<path d="M97.7461 105.477C95.1492 105.477 90.5496 103.384 90.3551 103.295C90.3201 103.279 90.2886 103.256 90.2624 103.228C90.2361 103.2 90.2157 103.167 90.2023 103.131C90.1751 103.058 90.1781 102.977 90.2104 102.907C90.2427 102.836 90.3018 102.781 90.3746 102.754C90.4475 102.727 90.5281 102.73 90.5988 102.762C90.6457 102.784 95.277 104.891 97.7461 104.891C98.0549 104.891 98.1287 104.833 98.1293 104.832C98.1147 104.49 96.433 103.119 94.4309 101.868C92.6496 101.333 93.491 97.8781 93.5285 97.7298C93.5436 97.6687 93.5781 97.6141 93.6268 97.5742C93.6755 97.5343 93.7358 97.5112 93.7987 97.5084C97.0518 97.3589 99.3176 96.2603 100.533 94.2423C103.518 89.2865 99.3457 80.3128 99.3035 80.2232C99.2703 80.153 99.2663 80.0724 99.2924 79.9992C99.3186 79.926 99.3728 79.8662 99.443 79.833C99.5132 79.7997 99.5938 79.7957 99.667 79.8219C99.7402 79.848 99.8 79.9022 99.8332 79.9724C100.012 80.3521 104.181 89.3181 101.036 94.5435C99.7412 96.6927 97.391 97.8828 94.0483 98.082C93.842 99.0576 93.6363 101.051 94.626 101.315C94.6539 101.322 94.6805 101.334 94.7051 101.349C96.2971 102.34 98.9297 104.135 98.676 105.021C98.5459 105.477 97.9436 105.477 97.7461 105.477Z" fill="black"/>
<path d="M99.6482 148.297H99.6376C99.5987 148.296 99.5605 148.287 99.5252 148.27C99.4899 148.254 99.4582 148.231 99.4319 148.202L96.0616 144.5H66.3903C66.3472 144.5 66.3046 144.49 66.2656 144.472C66.2266 144.453 66.1921 144.427 66.1647 144.393C66.1373 144.36 66.1176 144.321 66.1069 144.279C66.0963 144.237 66.095 144.194 66.1032 144.151C70.9097 119.49 81.4337 103.08 81.5398 102.917C81.5821 102.851 81.6486 102.806 81.7247 102.79C81.8007 102.773 81.88 102.788 81.9452 102.83C82.0104 102.873 82.0561 102.939 82.0723 103.015C82.0884 103.091 82.0737 103.171 82.0314 103.236C81.9259 103.398 71.5607 119.566 66.7466 143.914H96.1911C96.2319 143.914 96.2722 143.923 96.3096 143.939C96.3469 143.955 96.3804 143.979 96.4079 144.01L99.664 147.586L112.814 135.117L104.665 125.732C104.628 125.69 104.604 125.638 104.596 125.583C104.588 125.527 104.596 125.471 104.619 125.419C104.639 125.377 106.541 121.081 104.841 117.98C103.073 114.757 98.4634 107.504 98.4165 107.431C98.3905 107.39 98.375 107.344 98.3714 107.295C98.3678 107.247 98.3763 107.199 98.396 107.154C98.4158 107.11 98.4462 107.071 98.4845 107.042C98.5229 107.012 98.5679 106.993 98.6157 106.985L109.213 105.201L95.4236 102.492C95.3842 102.487 95.3464 102.473 95.3124 102.453C95.2784 102.432 95.249 102.404 95.226 102.372C95.203 102.34 95.1867 102.303 95.1784 102.264C95.17 102.225 95.1696 102.185 95.1773 102.146C95.1849 102.107 95.2004 102.07 95.2228 102.037C95.2453 102.004 95.2741 101.976 95.3077 101.955C95.3413 101.934 95.3788 101.919 95.4181 101.913C95.4573 101.907 95.4975 101.908 95.5361 101.918L110.902 104.936C110.97 104.949 111.03 104.985 111.074 105.038C111.117 105.092 111.14 105.158 111.139 105.227C111.138 105.296 111.113 105.362 111.069 105.414C111.024 105.466 110.962 105.501 110.895 105.512L99.1472 107.489C100.117 109.022 103.809 114.882 105.355 117.699C107.014 120.726 105.588 124.611 105.227 125.486L113.44 134.945C113.489 135.002 113.515 135.076 113.511 135.151C113.507 135.227 113.475 135.298 113.42 135.35L99.8497 148.217C99.7952 148.269 99.7231 148.297 99.6482 148.297Z" fill="black"/>
<path d="M96.1917 144.5C96.1437 144.5 96.0964 144.489 96.054 144.466C96.0116 144.444 95.9754 144.411 95.9485 144.372C93.8511 141.274 91.9359 138.057 90.2127 134.737C87.787 129.727 87.5174 116.406 87.5075 115.841C87.5061 115.764 87.5355 115.689 87.5893 115.633C87.6432 115.577 87.717 115.544 87.7946 115.543H87.8004C87.8773 115.543 87.9512 115.573 88.006 115.627C88.0608 115.681 88.0922 115.754 88.0934 115.831C88.0963 115.968 88.3706 129.587 90.7407 134.482C92.451 137.776 94.3519 140.969 96.4336 144.042C96.4636 144.086 96.4809 144.138 96.4838 144.191C96.4868 144.244 96.4751 144.297 96.4502 144.344C96.4252 144.391 96.3879 144.431 96.3423 144.458C96.2966 144.486 96.2443 144.5 96.1911 144.5H96.1917ZM104.886 125.833C104.832 125.833 104.778 125.818 104.731 125.789C104.685 125.76 104.647 125.718 104.623 125.669L98.717 113.645C98.7001 113.611 98.6901 113.573 98.6876 113.535C98.6852 113.496 98.6903 113.458 98.7027 113.421C98.7152 113.385 98.7347 113.351 98.7601 113.322C98.7855 113.293 98.8164 113.27 98.8509 113.253C98.8855 113.236 98.923 113.226 98.9614 113.223C98.9998 113.221 99.0384 113.226 99.0748 113.238C99.1112 113.251 99.1448 113.27 99.1737 113.296C99.2026 113.321 99.2262 113.352 99.2432 113.387L105.149 125.411C105.171 125.455 105.182 125.505 105.179 125.555C105.176 125.604 105.161 125.652 105.135 125.695C105.109 125.737 105.072 125.772 105.029 125.796C104.985 125.82 104.936 125.833 104.886 125.833ZM98.9801 144.5C98.9224 144.5 98.8659 144.483 98.8178 144.451C98.7697 144.419 98.7322 144.373 98.7099 144.32C98.6876 144.267 98.6816 144.208 98.6925 144.151C98.7035 144.095 98.731 144.042 98.7715 144.001L109.529 133.138C109.584 133.083 109.658 133.051 109.736 133.051C109.814 133.05 109.889 133.081 109.944 133.135C109.999 133.19 110.031 133.264 110.031 133.342C110.032 133.42 110.001 133.495 109.947 133.55L99.1887 144.413C99.1614 144.441 99.1289 144.463 99.0931 144.478C99.0573 144.492 99.0189 144.5 98.9801 144.5ZM87.8004 203.412L84.5309 170.998L83.9045 216.352L87.8004 203.412ZM117.495 168.628C116.411 168.628 115.263 168.079 114.075 166.994C111.482 164.611 109.653 161.512 108.819 158.09C108.52 156.792 106.95 154.614 106.934 154.592C106.911 154.56 106.894 154.525 106.884 154.487C106.874 154.449 106.872 154.41 106.878 154.371C106.884 154.333 106.897 154.296 106.917 154.262C106.938 154.229 106.964 154.2 106.996 154.177C107.028 154.154 107.063 154.138 107.101 154.129C107.139 154.12 107.179 154.119 107.217 154.126C107.256 154.132 107.293 154.147 107.325 154.168C107.358 154.189 107.387 154.216 107.409 154.248C107.476 154.341 109.065 156.545 109.39 157.958C110.196 161.265 111.964 164.259 114.471 166.562C115.676 167.663 116.808 168.155 117.829 168.02C118.208 167.957 118.57 167.82 118.895 167.615C119.22 167.411 119.501 167.144 119.722 166.831C119.757 166.776 119.809 166.735 119.87 166.713C119.931 166.691 119.998 166.69 120.059 166.71C121.741 167.258 123.063 167.233 123.988 166.631C124.332 166.387 124.623 166.075 124.843 165.714C125.063 165.353 125.207 164.951 125.267 164.533C125.272 164.484 125.29 164.436 125.318 164.396C125.347 164.355 125.385 164.322 125.43 164.3C125.474 164.278 125.524 164.268 125.573 164.271C125.623 164.273 125.671 164.288 125.714 164.315C126.857 165.029 127.819 165.216 128.573 164.868C129.897 164.259 130.222 162.185 130.225 162.164C130.233 162.11 130.257 162.058 130.293 162.016C130.329 161.975 130.376 161.944 130.429 161.927C131.982 161.449 132.788 160.612 132.891 159.369C133.317 154.225 122.06 144.526 120.54 143.766C118.554 142.773 112.233 136.603 111.965 136.341C111.909 136.287 111.877 136.213 111.876 136.135C111.876 136.057 111.906 135.982 111.96 135.927C112.014 135.871 112.089 135.84 112.166 135.839C112.244 135.838 112.319 135.868 112.375 135.922C112.439 135.986 118.897 142.289 120.802 143.242C122.419 144.051 133.93 153.921 133.475 159.417C133.355 160.858 132.447 161.871 130.772 162.433C130.654 163.009 130.189 164.768 128.82 165.4C127.962 165.795 126.936 165.669 125.765 165.024C125.554 165.879 125.035 166.627 124.307 167.123C123.267 167.8 121.846 167.869 120.08 167.331C119.546 168.014 118.771 168.468 117.914 168.6C117.775 168.618 117.635 168.628 117.495 168.628Z" fill="black"/>
<path d="M130.516 162.499C130.466 162.5 130.418 162.487 130.375 162.464C130.331 162.44 130.295 162.406 130.268 162.365L126.26 156.072C126.218 156.006 126.204 155.927 126.221 155.851C126.238 155.775 126.284 155.709 126.35 155.667C126.416 155.625 126.495 155.611 126.571 155.628C126.647 155.645 126.713 155.691 126.755 155.757L130.762 162.05C130.79 162.094 130.806 162.145 130.808 162.198C130.81 162.25 130.797 162.302 130.772 162.348C130.747 162.394 130.71 162.432 130.665 162.459C130.62 162.486 130.568 162.5 130.516 162.5V162.499ZM125.559 164.855C125.511 164.856 125.464 164.844 125.422 164.822C125.38 164.8 125.344 164.768 125.317 164.729L121.52 159.227C121.477 159.164 121.46 159.085 121.475 159.009C121.489 158.933 121.533 158.866 121.596 158.822C121.66 158.778 121.738 158.761 121.814 158.774C121.891 158.788 121.958 158.831 122.003 158.895L125.799 164.397C125.843 164.461 125.86 164.539 125.846 164.616C125.832 164.692 125.788 164.76 125.724 164.804C125.676 164.838 125.618 164.856 125.559 164.855ZM119.969 167.281C119.921 167.281 119.874 167.27 119.832 167.248C119.789 167.225 119.753 167.193 119.726 167.153L116.984 163.146C116.962 163.114 116.947 163.078 116.939 163.04C116.931 163.003 116.931 162.964 116.938 162.926C116.945 162.888 116.96 162.852 116.981 162.82C117.002 162.788 117.029 162.76 117.061 162.738C117.093 162.717 117.128 162.701 117.166 162.694C117.204 162.686 117.243 162.685 117.28 162.692C117.318 162.7 117.354 162.714 117.386 162.735C117.419 162.756 117.446 162.783 117.468 162.815L120.21 166.823C120.24 166.867 120.258 166.918 120.261 166.971C120.264 167.025 120.252 167.078 120.228 167.125C120.203 167.172 120.165 167.211 120.12 167.239C120.074 167.266 120.022 167.281 119.969 167.281ZM87.2384 163.734C86.1555 163.734 84.9333 163.641 83.7971 163.553C82.6981 163.431 81.5915 163.392 80.4866 163.437C78.69 163.553 76.8879 163.553 75.0913 163.438C75.0528 163.436 75.0152 163.426 74.9806 163.409C74.946 163.392 74.915 163.369 74.8895 163.34C74.864 163.311 74.8444 163.277 74.8319 163.241C74.8193 163.204 74.8141 163.166 74.8165 163.127C74.8222 163.05 74.8578 162.978 74.9157 162.927C74.9735 162.876 75.0492 162.849 75.1264 162.853C76.8889 162.964 78.6567 162.965 80.4192 162.854C81.5611 162.805 82.7051 162.843 83.8411 162.969C85.8057 163.12 88.0317 163.29 89.2335 162.958C89.2712 162.945 89.311 162.94 89.3507 162.943C89.3903 162.947 89.4289 162.958 89.464 162.976C89.4991 162.995 89.5301 163.021 89.555 163.052C89.5799 163.083 89.5983 163.118 89.609 163.157C89.6196 163.195 89.6224 163.235 89.6171 163.274C89.6118 163.314 89.5985 163.352 89.578 163.386C89.5576 163.42 89.5304 163.45 89.4982 163.473C89.466 163.496 89.4293 163.513 89.3905 163.521C88.6852 163.684 87.9619 163.755 87.2384 163.734Z" fill="black"/>
<path d="M87.8004 262.613V280.209C87.8004 280.922 88.0838 281.606 88.5881 282.111C89.0925 282.615 89.7766 282.898 90.4899 282.898H131.043V281.372C131.043 280.812 130.892 280.262 130.608 279.78C130.323 279.298 129.914 278.901 129.424 278.63L112.691 269.398V262.613H87.8004ZM68.1211 266.042L69.283 262.43L45.1817 256.071L41.1153 268.708C41.007 269.044 40.966 269.399 40.9947 269.751C41.0234 270.103 41.1211 270.446 41.2823 270.76C41.4435 271.074 41.6651 271.354 41.9343 271.582C42.2035 271.811 42.5152 271.984 42.8514 272.093L81.4547 284.515L81.9223 283.062C82.0938 282.529 82.1193 281.96 81.996 281.413C81.8728 280.867 81.6053 280.364 81.2215 279.956L68.1211 266.042Z" fill="#FED44A"/>
<path d="M98.5736 91.0548C98.0915 91.0311 97.6205 90.9028 97.1931 90.6787C97.1589 90.661 97.1285 90.6367 97.1037 90.6073C97.0789 90.5778 97.0601 90.5438 97.0484 90.5071C97.0367 90.4704 97.0324 90.4317 97.0357 90.3934C97.0389 90.355 97.0497 90.3176 97.0674 90.2834C97.0851 90.2492 97.1094 90.2188 97.1388 90.194C97.1682 90.1692 97.2023 90.1504 97.239 90.1387C97.2757 90.1271 97.3143 90.1227 97.3527 90.126C97.3911 90.1293 97.4284 90.1401 97.4626 90.1577C97.8417 90.354 98.6609 90.6447 99.0406 90.3318C99.3288 90.0968 99.2837 89.5068 99.2152 88.612C99.1403 87.7743 98.9793 86.9465 98.7347 86.1417C98.6635 85.9037 98.5881 85.667 98.5085 85.4316C98.3029 84.8105 98.1786 84.4361 98.4189 84.0699C98.6726 83.6831 99.1958 83.5273 100.022 83.5865C100.099 83.5924 100.171 83.629 100.222 83.688C100.272 83.747 100.298 83.8236 100.292 83.9011C100.289 83.9396 100.279 83.9772 100.262 84.0117C100.244 84.0462 100.22 84.077 100.191 84.1021C100.162 84.1273 100.128 84.1464 100.091 84.1582C100.055 84.1701 100.016 84.1745 99.9775 84.1712C99.2116 84.1085 98.979 84.2843 98.9087 84.391C98.8273 84.5158 98.8935 84.7308 99.0646 85.2464C99.132 85.4497 99.2111 85.6888 99.296 85.9753C99.5529 86.8197 99.7217 87.6884 99.7999 88.5675C99.882 89.6456 99.9365 90.3576 99.4114 90.7859C99.1721 90.9706 98.8757 91.0659 98.5736 91.0554V91.0548ZM96.572 93.4759C96.1125 93.4914 95.6613 93.3509 95.2917 93.0775C95.0594 92.8787 94.8698 92.6349 94.7345 92.3608C94.5991 92.0866 94.5208 91.7878 94.5042 91.4826C94.5017 91.4051 94.5299 91.3299 94.5827 91.2732C94.6355 91.2165 94.7087 91.1831 94.7861 91.1802C94.8634 91.1789 94.9382 91.2076 94.9948 91.2602C95.0514 91.3129 95.0853 91.3854 95.0896 91.4626C95.1184 91.9063 95.3212 92.3207 95.6538 92.6158C95.8913 92.7645 96.1588 92.8586 96.4371 92.8912C96.7154 92.9238 96.9974 92.8942 97.2628 92.8044C97.337 92.791 97.4135 92.8067 97.4765 92.8483C97.5394 92.8899 97.5838 92.9541 97.6006 93.0276C97.6174 93.1011 97.6051 93.1783 97.5664 93.243C97.5277 93.3078 97.4656 93.3551 97.3929 93.3751C97.1239 93.4393 96.8485 93.4731 96.572 93.4759ZM93.654 85.6478C93.5987 85.6476 93.5446 85.6319 93.4979 85.6023C93.4512 85.5727 93.4139 85.5304 93.3901 85.4805C93.3664 85.4305 93.3573 85.3749 93.3639 85.32C93.3705 85.2651 93.3924 85.2132 93.4273 85.1703C93.4407 85.1538 94.7808 83.5589 97.0572 84.7249C97.1264 84.7604 97.1787 84.8219 97.2026 84.8959C97.2265 84.9699 97.22 85.0503 97.1846 85.1196C97.1492 85.1888 97.0877 85.2411 97.0137 85.265C96.9397 85.2889 96.8592 85.2824 96.79 85.247C94.9472 84.3013 93.9224 85.4908 93.8802 85.5423C93.8526 85.5755 93.818 85.6021 93.7789 85.6203C93.7398 85.6386 93.6972 85.6479 93.654 85.6478Z" fill="black"/>
<path d="M96.2594 88.1397C96.5466 88.0914 96.7226 87.7146 96.6526 87.2982C96.5825 86.8817 96.2928 86.5833 96.0056 86.6316C95.7184 86.68 95.5424 87.0568 95.6125 87.4732C95.6826 87.8897 95.9722 88.1881 96.2594 88.1397Z" fill="black"/>
<path d="M100.503 87.1114C100.791 87.0631 100.967 86.6863 100.896 86.2699C100.826 85.8534 100.537 85.555 100.25 85.6033C99.9623 85.6517 99.7863 86.0284 99.8564 86.4449C99.9265 86.8613 100.216 87.1597 100.503 87.1114Z" fill="black"/>
<path d="M131.326 113.809C131.189 113.809 131.053 113.792 130.92 113.76C130.504 113.66 130.107 113.491 129.746 113.26C129.164 112.867 128.76 112.26 128.621 111.571C128.297 111.991 127.891 112.342 127.429 112.603C127.185 112.728 126.919 112.804 126.646 112.825C126.576 112.835 126.508 112.845 126.441 112.856C126.23 112.927 126.003 112.94 125.785 112.894C125.567 112.848 125.366 112.744 125.201 112.593C124.922 112.378 124.67 112.132 124.448 111.858C124.055 111.224 123.845 110.494 123.843 109.749C123.699 108.036 123.769 106.313 124.051 104.618C124.06 104.561 124.077 104.482 124.098 104.385C124.319 103.365 124.253 103.116 124.193 103.06C124.029 103.074 123.169 103.236 122.41 103.379C121.759 103.523 121.102 103.633 120.439 103.708V103.709L120.405 103.709C120.371 103.709 120.336 103.707 120.302 103.701C120.127 103.691 119.955 103.683 119.787 103.675C118.572 103.703 117.365 103.46 116.256 102.962L116.02 102.842C115.403 102.546 114.808 102.205 114.242 101.821C113.348 101.18 112.44 99.7636 113.222 98.6205C114.173 97.2318 115.949 97.7164 117.124 98.0386L117.486 98.1412C117.86 98.2605 118.243 98.3492 118.631 98.4066C119.161 98.4686 119.694 98.5012 120.228 98.5044C120.37 98.5062 120.521 98.5121 120.678 98.5185C121.437 98.5484 122.3 98.5824 122.821 98.1787C123.07 97.9775 123.305 97.7602 123.526 97.5283L123.766 97.288C124.187 96.8787 124.651 96.5168 125.151 96.2087L125.378 96.064C126.151 95.5671 127.208 94.8898 128.184 95.3287C128.356 95.4141 128.52 95.513 128.675 95.6246C129.185 95.9656 129.456 96.0986 129.621 95.9269C129.727 95.8016 129.813 95.661 129.876 95.5097C129.926 95.4018 129.981 95.2966 130.042 95.1945C130.256 94.8684 130.536 94.5903 130.863 94.3777C131.195 94.1656 131.572 94.0337 131.965 93.9926C132.357 93.9514 132.753 94.002 133.123 94.1404C133.34 94.2428 133.544 94.3724 133.729 94.5259C133.98 94.7134 134.444 95.0597 134.59 94.9595C134.635 94.9043 134.671 94.8432 134.699 94.7779C134.732 94.7061 134.771 94.637 134.815 94.571C134.91 94.4424 135.016 94.3216 135.131 94.2101C135.188 94.1541 135.242 94.0965 135.295 94.0372L135.371 93.9494C135.608 93.6114 135.952 93.3628 136.347 93.2433L136.436 93.2228C136.837 93.0877 137.269 93.0753 137.677 93.1871C138.042 93.3389 138.378 93.5539 138.669 93.8222C138.812 93.9594 138.937 94.1143 139.04 94.2833C139.109 94.3859 139.236 94.5763 139.293 94.5904C139.293 94.5904 139.329 94.5892 139.412 94.5224L139.544 94.4164C139.779 94.1663 140.063 93.9672 140.379 93.8314C140.694 93.6956 141.034 93.6261 141.377 93.6271C141.827 93.6792 142.257 93.8413 142.63 94.099C143.002 94.3567 143.306 94.7021 143.513 95.1048C143.866 95.8144 145.392 100.489 145.346 102.188C145.319 103.202 144.527 108.428 144.039 109.315C143.939 109.567 143.773 109.788 143.559 109.955C143.344 110.121 143.09 110.228 142.82 110.264C142.014 110.315 141.295 109.405 140.897 108.829C140.873 108.909 140.851 108.989 140.83 109.07C140.796 109.219 140.749 109.366 140.691 109.507C140.511 109.925 140.297 110.327 140.052 110.71C139.574 111.317 138.965 111.807 138.269 112.144C137.915 112.376 137.507 112.514 137.084 112.546C136.661 112.579 136.237 112.503 135.851 112.327C135.411 112.097 135.058 111.731 134.843 111.283C134.647 111.719 134.375 112.117 134.04 112.459C133.543 112.969 132.935 113.356 132.263 113.591C131.966 113.72 131.649 113.794 131.326 113.809H131.326ZM128.776 110.441C128.791 110.441 128.807 110.443 128.822 110.445C128.886 110.456 128.945 110.487 128.989 110.534C129.033 110.581 129.06 110.641 129.067 110.705C129.166 111.728 129.492 112.402 130.062 112.766C130.367 112.962 130.702 113.105 131.054 113.19C131.398 113.25 131.752 113.198 132.064 113.041C132.656 112.833 133.191 112.492 133.628 112.043C134.134 111.475 134.496 110.792 134.682 110.054L134.688 110.037C134.713 109.965 134.765 109.905 134.834 109.87C134.902 109.836 134.981 109.83 135.054 109.853C135.127 109.876 135.188 109.927 135.224 109.994C135.26 110.062 135.268 110.14 135.247 110.214L135.242 110.227C135.216 110.543 135.283 110.861 135.435 111.14C135.587 111.419 135.818 111.647 136.099 111.796C136.406 111.933 136.742 111.988 137.077 111.957C137.411 111.926 137.732 111.81 138.009 111.619C138.617 111.329 139.151 110.904 139.571 110.376C139.796 110.021 139.993 109.649 140.158 109.263C140.202 109.153 140.237 109.039 140.263 108.922C140.307 108.584 140.467 108.271 140.716 108.038C140.779 107.995 140.856 107.979 140.931 107.992C141.006 108.005 141.073 108.046 141.117 108.108C141.142 108.143 141.177 108.194 141.22 108.26C141.455 108.612 142.162 109.679 142.775 109.679L142.796 109.678C143.051 109.668 143.296 109.45 143.526 109.033C143.901 108.351 144.73 103.317 144.76 102.172C144.803 100.589 143.32 96.0312 142.989 95.3662C142.825 95.0501 142.586 94.7793 142.293 94.5774C141.999 94.3755 141.661 94.2487 141.308 94.2083C140.775 94.2408 140.275 94.4783 139.913 94.871L139.778 94.9806C139.701 95.0508 139.61 95.1039 139.511 95.1365C139.412 95.1691 139.307 95.1805 139.203 95.1699C138.896 95.1224 138.714 94.8494 138.552 94.6091C138.476 94.4829 138.385 94.3662 138.281 94.2617C138.041 94.0395 137.764 93.8603 137.463 93.732C137.165 93.6729 136.856 93.6939 136.569 93.7929L136.477 93.814C136.206 93.9112 135.974 94.093 135.815 94.3326L135.736 94.4234C135.676 94.4919 135.613 94.5564 135.549 94.6208C135.456 94.7098 135.371 94.806 135.293 94.9085C135.267 94.9499 135.244 94.9932 135.224 95.038C135.16 95.1933 135.059 95.3303 134.93 95.4365C134.437 95.7886 133.85 95.3486 133.379 94.9953C133.235 94.877 133.079 94.7739 132.913 94.6876C132.634 94.5853 132.334 94.5473 132.038 94.5765C131.742 94.6057 131.456 94.7014 131.201 94.8564C130.939 95.0236 130.714 95.2435 130.541 95.5021C130.491 95.5872 130.445 95.6748 130.403 95.7646C130.315 95.9721 130.193 96.164 130.043 96.333C129.507 96.8919 128.81 96.4208 128.349 96.1109C128.22 96.0182 128.084 95.9354 127.943 95.863C127.257 95.5531 126.391 96.1091 125.695 96.5568L125.463 96.7056C124.998 96.9914 124.567 97.3272 124.175 97.707L123.941 97.9414C123.703 98.1915 123.448 98.4258 123.179 98.6427C122.49 99.1753 121.472 99.1355 120.655 99.1039C120.503 99.098 120.357 99.0921 120.22 99.0904C119.665 99.0871 119.111 99.0528 118.56 98.9878C118.141 98.9279 117.727 98.833 117.324 98.7042L116.975 98.6052C115.833 98.2929 114.42 97.9062 113.705 98.9509C113.153 99.7595 113.903 100.857 114.583 101.345C115.126 101.711 115.695 102.037 116.286 102.319L116.524 102.44C117.559 102.899 118.683 103.121 119.815 103.089C120.031 103.1 120.25 103.111 120.475 103.125C120.489 103.125 120.503 103.127 120.517 103.13C120.807 103.086 121.626 102.931 122.301 102.804C123.326 102.611 123.96 102.492 124.117 102.478C124.213 102.466 124.31 102.477 124.4 102.511C124.49 102.545 124.57 102.6 124.633 102.673C124.955 103.039 124.828 103.781 124.67 104.51C124.652 104.595 124.636 104.666 124.628 104.715C124.355 106.361 124.287 108.034 124.427 109.697C124.424 110.331 124.591 110.953 124.911 111.5C125.105 111.737 125.326 111.951 125.569 112.137C125.853 112.367 125.928 112.352 126.339 112.28C126.412 112.267 126.488 112.256 126.564 112.245C126.761 112.232 126.954 112.181 127.133 112.097C127.74 111.765 128.223 111.245 128.508 110.615C128.531 110.563 128.569 110.519 128.616 110.488C128.664 110.458 128.719 110.441 128.776 110.441Z" fill="black"/>
<path d="M129.472 109.037C129.425 109.037 129.379 109.025 129.337 109.004C129.296 108.982 129.26 108.951 129.233 108.913C129.206 108.874 129.188 108.83 129.182 108.784C129.176 108.737 129.181 108.69 129.196 108.646L129.25 108.493C129.488 107.899 129.657 107.279 129.754 106.645C129.803 106.247 129.84 105.846 129.876 105.444C129.919 104.974 129.961 104.503 130.024 104.036C130.144 103.224 130.187 102.404 130.151 101.584C130.033 100.481 129.776 99.3962 129.387 98.3568C129.297 98.0839 129.21 97.8103 129.126 97.5359C129.114 97.4989 129.109 97.46 129.112 97.4213C129.116 97.3826 129.127 97.3449 129.145 97.3105C129.163 97.276 129.187 97.2455 129.217 97.2207C129.247 97.1959 129.281 97.1772 129.318 97.1658C129.356 97.1545 129.395 97.1506 129.433 97.1544C129.472 97.1582 129.509 97.1697 129.544 97.1882C129.578 97.2066 129.608 97.2317 129.632 97.2619C129.657 97.2921 129.675 97.3269 129.686 97.3642C129.766 97.6285 129.854 97.8992 129.944 98.1757C130.351 99.2625 130.617 100.397 130.736 101.551C130.774 102.407 130.73 103.265 130.604 104.113C130.543 104.572 130.501 105.035 130.459 105.498C130.422 105.905 130.385 106.313 130.336 106.717C130.234 107.393 130.055 108.055 129.802 108.69L129.748 108.842C129.728 108.899 129.691 108.948 129.641 108.983C129.592 109.018 129.532 109.037 129.472 109.037ZM134.697 108.847C134.634 108.847 134.573 108.827 134.523 108.789C134.492 108.767 134.466 108.738 134.446 108.705C134.426 108.672 134.413 108.635 134.407 108.597C134.401 108.559 134.403 108.52 134.412 108.483C134.422 108.445 134.438 108.41 134.461 108.379C134.576 108.188 134.658 107.979 134.701 107.76C134.725 107.676 134.748 107.591 134.773 107.51C134.81 107.39 134.849 107.271 134.889 107.152C134.992 106.862 135.077 106.565 135.145 106.265C135.271 105.557 135.337 104.839 135.342 104.119L135.348 103.943C135.383 103.243 135.375 102.542 135.322 101.844C135.155 100.498 134.904 99.1641 134.57 97.8499C134.468 97.4105 134.367 96.9751 134.274 96.5462C134.258 96.4702 134.272 96.3908 134.314 96.3254C134.356 96.2601 134.423 96.2141 134.499 96.1976C134.575 96.1811 134.654 96.1955 134.719 96.2376C134.785 96.2797 134.831 96.346 134.847 96.422C134.939 96.848 135.04 97.281 135.141 97.7175C135.482 99.0561 135.737 100.415 135.905 101.786C135.961 102.509 135.97 103.235 135.934 103.96L135.928 104.136C135.921 104.89 135.852 105.641 135.72 106.382C135.647 106.705 135.556 107.024 135.445 107.336C135.407 107.453 135.368 107.568 135.332 107.684C135.309 107.758 135.288 107.835 135.268 107.913C135.208 108.203 135.094 108.479 134.933 108.728C134.906 108.765 134.87 108.795 134.829 108.816C134.788 108.836 134.743 108.847 134.697 108.847ZM140.521 107.567C140.495 107.567 140.47 107.563 140.446 107.557C140.371 107.537 140.307 107.488 140.268 107.421C140.229 107.354 140.218 107.274 140.237 107.199C140.648 105.676 140.792 104.093 140.662 102.521C140.411 100.574 139.914 98.6674 139.183 96.8456L138.943 96.1607C138.93 96.1243 138.925 96.0858 138.927 96.0474C138.929 96.009 138.939 95.9714 138.956 95.9368C138.973 95.9021 138.996 95.8712 139.025 95.8456C139.054 95.82 139.087 95.8004 139.124 95.7877C139.16 95.7751 139.198 95.7698 139.237 95.772C139.275 95.7743 139.313 95.7841 139.348 95.8009C139.382 95.8177 139.413 95.8411 139.439 95.8699C139.464 95.8986 139.484 95.9321 139.497 95.9685L139.736 96.6511C140.481 98.5197 140.988 100.474 141.246 102.469C141.382 104.109 141.232 105.76 140.804 107.348C140.787 107.411 140.751 107.466 140.7 107.505C140.648 107.545 140.586 107.566 140.521 107.567ZM130.515 153.066C130.442 153.066 130.371 153.039 130.317 152.989C130.263 152.939 130.23 152.871 130.224 152.798C130.217 152.725 130.239 152.652 130.284 152.594C130.329 152.536 130.394 152.497 130.467 152.485L173.991 145.159C174.374 145.094 174.715 144.88 174.941 144.564C175.166 144.248 175.256 143.855 175.192 143.472L167.456 97.4796C167.391 97.0967 167.177 96.7552 166.86 96.53C166.544 96.3048 166.151 96.2143 165.768 96.2785L144.667 99.8304C144.629 99.8375 144.59 99.8369 144.552 99.8286C144.514 99.8203 144.478 99.8046 144.446 99.7823C144.414 99.76 144.387 99.7316 144.367 99.6988C144.346 99.6659 144.332 99.6293 144.325 99.591C144.319 99.5526 144.32 99.5134 144.329 99.4756C144.338 99.4377 144.354 99.402 144.377 99.3705C144.4 99.3391 144.429 99.3124 144.462 99.2922C144.495 99.272 144.532 99.2585 144.57 99.2527L165.67 95.7001C166.207 95.6107 166.757 95.7376 167.2 96.0529C167.643 96.3682 167.942 96.8463 168.034 97.3824L175.77 143.374C175.86 143.911 175.734 144.461 175.419 144.904C175.103 145.347 174.625 145.647 174.089 145.737L130.564 153.062C130.548 153.065 130.532 153.066 130.515 153.066ZM98.6638 107.568C98.5909 107.567 98.521 107.539 98.4676 107.489C98.4143 107.44 98.3814 107.372 98.3753 107.299C98.3692 107.227 98.3904 107.154 98.4348 107.096C98.4791 107.039 98.5434 106.999 98.6151 106.986L124.408 102.645C124.485 102.632 124.563 102.65 124.627 102.695C124.69 102.74 124.733 102.809 124.746 102.885C124.759 102.962 124.741 103.041 124.696 103.104C124.651 103.167 124.582 103.21 124.505 103.223L98.7124 107.565C98.6963 107.567 98.6801 107.568 98.6638 107.568Z" fill="black"/>
<path d="M277.386 121.484H171.742C171.664 121.484 171.589 121.453 171.535 121.398C171.48 121.343 171.449 121.268 171.449 121.191C171.449 121.113 171.48 121.039 171.535 120.984C171.589 120.929 171.664 120.898 171.742 120.898H277.386C277.93 120.897 278.451 120.681 278.836 120.296C279.22 119.912 279.436 119.391 279.437 118.847V17.972C279.436 17.4283 279.22 16.907 278.836 16.5226C278.451 16.1381 277.93 15.9219 277.386 15.9212H65.0425C64.4988 15.9219 63.9775 16.1381 63.593 16.5226C63.2086 16.907 62.9923 17.4283 62.9917 17.972V118.847C62.9923 119.391 63.2086 119.912 63.593 120.296C63.9775 120.681 64.4988 120.897 65.0425 120.898H73.0288C73.1065 120.898 73.181 120.929 73.236 120.984C73.2909 121.039 73.3218 121.113 73.3218 121.191C73.3218 121.268 73.2909 121.343 73.236 121.398C73.181 121.453 73.1065 121.484 73.0288 121.484H65.0425C64.3434 121.483 63.6732 121.205 63.1789 120.711C62.6846 120.216 62.4065 119.546 62.4058 118.847V17.972C62.4065 17.273 62.6846 16.6027 63.1789 16.1084C63.6732 15.6141 64.3434 15.3361 65.0425 15.3353H277.386C278.085 15.3361 278.756 15.6141 279.25 16.1084C279.744 16.6027 280.022 17.273 280.023 17.972V118.847C280.022 119.546 279.744 120.216 279.25 120.711C278.756 121.205 278.085 121.483 277.386 121.484Z" fill="black"/>
<path d="M254.041 99.1197H198.799C197.504 99.1197 196.455 100.169 196.455 101.463V144.591C196.455 145.886 197.504 146.935 198.799 146.935H254.041C255.335 146.935 256.385 145.886 256.385 144.591V101.463C256.385 100.169 255.335 99.1197 254.041 99.1197Z" fill="#FED44A"/>
<path d="M188.183 78.0136H185.253C185.176 78.0136 185.101 77.9828 185.046 77.9278C184.991 77.8729 184.96 77.7983 184.96 77.7206C184.96 77.6429 184.991 77.5684 185.046 77.5135C185.101 77.4585 185.176 77.4277 185.253 77.4277H188.183C188.261 77.4277 188.335 77.4585 188.39 77.5135C188.445 77.5684 188.476 77.6429 188.476 77.7206C188.476 77.7983 188.445 77.8729 188.39 77.9278C188.335 77.9828 188.261 78.0136 188.183 78.0136ZM182.324 78.0136H179.394C179.316 78.0136 179.242 77.9828 179.187 77.9278C179.132 77.8729 179.101 77.7983 179.101 77.7206C179.101 77.6429 179.132 77.5684 179.187 77.5135C179.242 77.4585 179.316 77.4277 179.394 77.4277H182.324C182.401 77.4277 182.476 77.4585 182.531 77.5135C182.586 77.5684 182.617 77.6429 182.617 77.7206C182.617 77.7983 182.586 77.8729 182.531 77.9278C182.476 77.9828 182.401 78.0136 182.324 78.0136ZM176.464 78.0136H173.535C173.457 78.0136 173.382 77.9828 173.328 77.9278C173.273 77.8729 173.242 77.7983 173.242 77.7206C173.242 77.6429 173.273 77.5684 173.328 77.5135C173.382 77.4585 173.457 77.4277 173.535 77.4277H176.464C176.542 77.4277 176.617 77.4585 176.672 77.5135C176.726 77.5684 176.757 77.6429 176.757 77.7206C176.757 77.7983 176.726 77.8729 176.672 77.9278C176.617 77.9828 176.542 78.0136 176.464 78.0136ZM170.605 78.0136H167.675C167.598 78.0136 167.523 77.9828 167.468 77.9278C167.413 77.8729 167.382 77.7983 167.382 77.7206C167.382 77.6429 167.413 77.5684 167.468 77.5135C167.523 77.4585 167.598 77.4277 167.675 77.4277H170.605C170.683 77.4277 170.757 77.4585 170.812 77.5135C170.867 77.5684 170.898 77.6429 170.898 77.7206C170.898 77.7983 170.867 77.8729 170.812 77.9278C170.757 77.9828 170.683 78.0136 170.605 78.0136ZM164.746 78.0136H161.816C161.738 78.0136 161.664 77.9828 161.609 77.9278C161.554 77.8729 161.523 77.7983 161.523 77.7206C161.523 77.6429 161.554 77.5684 161.609 77.5135C161.664 77.4585 161.738 77.4277 161.816 77.4277H164.746C164.823 77.4277 164.898 77.4585 164.953 77.5135C165.008 77.5684 165.039 77.6429 165.039 77.7206C165.039 77.7983 165.008 77.8729 164.953 77.9278C164.898 77.9828 164.823 78.0136 164.746 78.0136ZM158.886 78.0136H155.957C155.879 78.0136 155.804 77.9828 155.749 77.9278C155.694 77.8729 155.664 77.7983 155.664 77.7206C155.664 77.6429 155.694 77.5684 155.749 77.5135C155.804 77.4585 155.879 77.4277 155.957 77.4277H158.886C158.964 77.4277 159.038 77.4585 159.093 77.5135C159.148 77.5684 159.179 77.6429 159.179 77.7206C159.179 77.7983 159.148 77.8729 159.093 77.9278C159.038 77.9828 158.964 78.0136 158.886 78.0136ZM153.027 78.0136H150.097C150.019 78.0136 149.945 77.9828 149.89 77.9278C149.835 77.8729 149.804 77.7983 149.804 77.7206C149.804 77.6429 149.835 77.5684 149.89 77.5135C149.945 77.4585 150.019 77.4277 150.097 77.4277H153.027C153.105 77.4277 153.179 77.4585 153.234 77.5135C153.289 77.5684 153.32 77.6429 153.32 77.7206C153.32 77.7983 153.289 77.8729 153.234 77.9278C153.179 77.9828 153.105 78.0136 153.027 78.0136ZM147.167 78.0136H144.238C144.16 78.0136 144.086 77.9828 144.031 77.9278C143.976 77.8729 143.945 77.7983 143.945 77.7206C143.945 77.6429 143.976 77.5684 144.031 77.5135C144.086 77.4585 144.16 77.4277 144.238 77.4277H147.167C147.245 77.4277 147.32 77.4585 147.375 77.5135C147.43 77.5684 147.46 77.6429 147.46 77.7206C147.46 77.7983 147.43 77.8729 147.375 77.9278C147.32 77.9828 147.245 78.0136 147.167 78.0136ZM141.308 78.0136H138.378C138.301 78.0136 138.226 77.9828 138.171 77.9278C138.116 77.8729 138.085 77.7983 138.085 77.7206C138.085 77.6429 138.116 77.5684 138.171 77.5135C138.226 77.4585 138.301 77.4277 138.378 77.4277H141.308C141.386 77.4277 141.46 77.4585 141.515 77.5135C141.57 77.5684 141.601 77.6429 141.601 77.7206C141.601 77.7983 141.57 77.8729 141.515 77.9278C141.46 77.9828 141.386 78.0136 141.308 78.0136ZM135.449 78.0136H132.519C132.441 78.0136 132.367 77.9828 132.312 77.9278C132.257 77.8729 132.226 77.7983 132.226 77.7206C132.226 77.6429 132.257 77.5684 132.312 77.5135C132.367 77.4585 132.441 77.4277 132.519 77.4277H135.449C135.526 77.4277 135.601 77.4585 135.656 77.5135C135.711 77.5684 135.742 77.6429 135.742 77.7206C135.742 77.7983 135.711 77.8729 135.656 77.9278C135.601 77.9828 135.526 78.0136 135.449 78.0136ZM129.589 78.0136H126.66C126.582 78.0136 126.507 77.9828 126.453 77.9278C126.398 77.8729 126.367 77.7983 126.367 77.7206C126.367 77.6429 126.398 77.5684 126.453 77.5135C126.507 77.4585 126.582 77.4277 126.66 77.4277H129.589C129.667 77.4277 129.742 77.4585 129.797 77.5135C129.851 77.5684 129.882 77.6429 129.882 77.7206C129.882 77.7983 129.851 77.8729 129.797 77.9278C129.742 77.9828 129.667 78.0136 129.589 78.0136ZM123.73 78.0136H120.8C120.723 78.0136 120.648 77.9828 120.593 77.9278C120.538 77.8729 120.507 77.7983 120.507 77.7206C120.507 77.6429 120.538 77.5684 120.593 77.5135C120.648 77.4585 120.723 77.4277 120.8 77.4277H123.73C123.808 77.4277 123.882 77.4585 123.937 77.5135C123.992 77.5684 124.023 77.6429 124.023 77.7206C124.023 77.7983 123.992 77.8729 123.937 77.9278C123.882 77.9828 123.808 78.0136 123.73 78.0136ZM188.866 77.9134C188.795 77.9137 188.727 77.8885 188.674 77.8426C188.62 77.7967 188.585 77.7331 188.575 77.6634C188.565 77.5937 188.58 77.5227 188.618 77.4632C188.655 77.4038 188.713 77.36 188.781 77.3398C189.193 77.2148 189.555 76.9629 189.816 76.6201C190.077 76.2772 190.223 75.8609 190.233 75.4302C190.235 75.3538 190.267 75.2813 190.322 75.228C190.377 75.1747 190.45 75.1448 190.526 75.1449H190.534C190.572 75.1459 190.61 75.1544 190.645 75.1701C190.681 75.1857 190.712 75.2081 190.739 75.236C190.765 75.264 190.786 75.2968 190.8 75.3327C190.814 75.3687 190.82 75.407 190.819 75.4455C190.806 75.9992 190.618 76.5345 190.283 76.9753C189.947 77.416 189.481 77.7398 188.951 77.9005C188.924 77.909 188.895 77.9133 188.866 77.9134ZM117.884 77.8959C117.852 77.8958 117.821 77.8906 117.792 77.8806C117.265 77.7072 116.807 77.3721 116.483 76.9232C116.158 76.4743 115.984 75.9344 115.984 75.3804C115.984 75.3027 116.015 75.2282 116.07 75.1733C116.125 75.1183 116.199 75.0874 116.277 75.0874C116.354 75.0874 116.429 75.1182 116.484 75.1728C116.539 75.2275 116.57 75.3017 116.57 75.3792C116.57 75.8103 116.705 76.2304 116.958 76.5797C117.21 76.929 117.567 77.1897 117.976 77.3246C118.042 77.3467 118.098 77.3914 118.134 77.4509C118.17 77.5104 118.183 77.5806 118.172 77.6492C118.161 77.7178 118.126 77.7801 118.073 77.8252C118.02 77.8703 117.953 77.8951 117.884 77.8953V77.8959ZM190.527 72.8011C190.449 72.8011 190.375 72.7703 190.32 72.7153C190.265 72.6604 190.234 72.5858 190.234 72.5082V69.5785C190.234 69.5008 190.265 69.4262 190.32 69.3713C190.375 69.3164 190.449 69.2855 190.527 69.2855C190.605 69.2855 190.679 69.3164 190.734 69.3713C190.789 69.4262 190.82 69.5008 190.82 69.5785V72.5082C190.82 72.5858 190.789 72.6604 190.734 72.7153C190.679 72.7703 190.605 72.8011 190.527 72.8011ZM116.277 72.7437C116.199 72.7437 116.125 72.7128 116.07 72.6579C116.015 72.6029 115.984 72.5284 115.984 72.4507V69.521C115.984 69.4433 116.015 69.3688 116.07 69.3139C116.125 69.2589 116.199 69.2281 116.277 69.2281C116.355 69.2281 116.429 69.2589 116.484 69.3139C116.539 69.3688 116.57 69.4433 116.57 69.521V72.4507C116.57 72.5284 116.539 72.6029 116.484 72.6579C116.429 72.7128 116.355 72.7437 116.277 72.7437ZM190.527 66.9417C190.449 66.9417 190.375 66.9109 190.32 66.8559C190.265 66.801 190.234 66.7265 190.234 66.6488V63.7191C190.234 63.6414 190.265 63.5669 190.32 63.5119C190.375 63.457 190.449 63.4261 190.527 63.4261C190.605 63.4261 190.679 63.457 190.734 63.5119C190.789 63.5669 190.82 63.6414 190.82 63.7191V66.6488C190.82 66.7265 190.789 66.801 190.734 66.8559C190.679 66.9109 190.605 66.9417 190.527 66.9417ZM116.277 66.8843C116.199 66.8843 116.125 66.8535 116.07 66.7985C116.015 66.7436 115.984 66.6691 115.984 66.5914V63.6617C115.984 63.584 116.015 63.5094 116.07 63.4545C116.125 63.3996 116.199 63.3687 116.277 63.3687C116.355 63.3687 116.429 63.3996 116.484 63.4545C116.539 63.5094 116.57 63.584 116.57 63.6617V66.5914C116.57 66.6691 116.539 66.7436 116.484 66.7985C116.429 66.8535 116.355 66.8843 116.277 66.8843ZM190.527 61.0824C190.449 61.0824 190.375 61.0515 190.32 60.9966C190.265 60.9416 190.234 60.8671 190.234 60.7894V57.8597C190.234 57.782 190.265 57.7075 190.32 57.6526C190.375 57.5976 190.449 57.5667 190.527 57.5667C190.605 57.5667 190.679 57.5976 190.734 57.6526C190.789 57.7075 190.82 57.782 190.82 57.8597V60.7894C190.82 60.8671 190.789 60.9416 190.734 60.9966C190.679 61.0515 190.605 61.0824 190.527 61.0824ZM116.277 61.0249C116.199 61.0249 116.125 60.9941 116.07 60.9391C116.015 60.8842 115.984 60.8097 115.984 60.732V57.8023C115.984 57.7246 116.015 57.6501 116.07 57.5951C116.125 57.5402 116.199 57.5093 116.277 57.5093C116.355 57.5093 116.429 57.5402 116.484 57.5951C116.539 57.6501 116.57 57.7246 116.57 57.8023V60.732C116.57 60.8097 116.539 60.8842 116.484 60.9391C116.429 60.9941 116.355 61.0249 116.277 61.0249ZM190.527 55.223C190.449 55.223 190.375 55.1921 190.32 55.1372C190.265 55.0822 190.234 55.0077 190.234 54.93V52.0003C190.234 51.9226 190.265 51.8481 190.32 51.7932C190.375 51.7382 190.449 51.7074 190.527 51.7074C190.605 51.7074 190.679 51.7382 190.734 51.7932C190.789 51.8481 190.82 51.9226 190.82 52.0003V54.93C190.82 55.0077 190.789 55.0822 190.734 55.1372C190.679 55.1921 190.605 55.223 190.527 55.223ZM116.277 55.1656C116.199 55.1656 116.125 55.1347 116.07 55.0798C116.015 55.0248 115.984 54.9503 115.984 54.8726V51.9429C115.984 51.8652 116.015 51.7907 116.07 51.7358C116.125 51.6808 116.199 51.6499 116.277 51.6499C116.355 51.6499 116.429 51.6808 116.484 51.7358C116.539 51.7907 116.57 51.8652 116.57 51.9429V54.8726C116.57 54.9503 116.539 55.0248 116.484 55.0798C116.429 55.1347 116.355 55.1656 116.277 55.1656ZM190.527 49.3636C190.449 49.3636 190.375 49.3328 190.32 49.2778C190.265 49.2229 190.234 49.1484 190.234 49.0707V46.141C190.234 46.0633 190.265 45.9887 190.32 45.9338C190.375 45.8789 190.449 45.848 190.527 45.848C190.605 45.848 190.679 45.8789 190.734 45.9338C190.789 45.9887 190.82 46.0633 190.82 46.141V49.0707C190.82 49.1484 190.789 49.2229 190.734 49.2778C190.679 49.3328 190.605 49.3636 190.527 49.3636ZM116.277 49.3062C116.199 49.3062 116.125 49.2753 116.07 49.2204C116.015 49.1654 115.984 49.0909 115.984 49.0132V46.0835C115.984 46.0058 116.015 45.9313 116.07 45.8764C116.125 45.8214 116.199 45.7906 116.277 45.7906C116.355 45.7906 116.429 45.8214 116.484 45.8764C116.539 45.9313 116.57 46.0058 116.57 46.0835V49.0132C116.57 49.0909 116.539 49.1654 116.484 49.2204C116.429 49.2753 116.355 49.3062 116.277 49.3062ZM190.527 43.5042C190.449 43.5042 190.375 43.4734 190.32 43.4184C190.265 43.3635 190.234 43.289 190.234 43.2113V42.0962C190.235 41.5601 190.025 41.045 189.65 40.6624C189.622 40.6351 189.6 40.6025 189.586 40.5666C189.571 40.5308 189.563 40.4923 189.564 40.4535C189.564 40.4147 189.572 40.3763 189.587 40.3406C189.602 40.3049 189.624 40.2725 189.652 40.2454C189.679 40.2183 189.712 40.1969 189.748 40.1826C189.784 40.1683 189.823 40.1613 189.862 40.162C189.901 40.1627 189.939 40.1711 189.974 40.1867C190.01 40.2023 190.042 40.2248 190.069 40.2529C190.552 40.7445 190.822 41.4069 190.82 42.0962V43.2113C190.82 43.289 190.789 43.3635 190.734 43.4184C190.679 43.4734 190.605 43.5042 190.527 43.5042ZM116.277 43.4468C116.199 43.4468 116.125 43.416 116.07 43.361C116.015 43.3061 115.984 43.2316 115.984 43.1539V42.0962C115.983 41.744 116.053 41.3952 116.19 41.0707C116.327 40.7462 116.528 40.4527 116.781 40.2078C116.837 40.1545 116.911 40.1255 116.988 40.127C117.066 40.1284 117.139 40.1603 117.193 40.2157C117.247 40.271 117.277 40.3454 117.276 40.4225C117.275 40.4997 117.244 40.5735 117.189 40.6279C116.992 40.8183 116.836 41.0465 116.73 41.2988C116.623 41.5512 116.569 41.8224 116.57 42.0962V43.1539C116.57 43.2316 116.539 43.3061 116.484 43.361C116.429 43.416 116.355 43.4468 116.277 43.4468ZM187.121 40.0455H184.192C184.114 40.0455 184.04 40.0146 183.985 39.9596C183.93 39.9047 183.899 39.8302 183.899 39.7525C183.899 39.6748 183.93 39.6003 183.985 39.5453C184.04 39.4904 184.114 39.4595 184.192 39.4595H187.121C187.199 39.4595 187.274 39.4904 187.329 39.5453C187.383 39.6003 187.414 39.6748 187.414 39.7525C187.414 39.8302 187.383 39.9047 187.329 39.9596C187.274 40.0146 187.199 40.0455 187.121 40.0455ZM181.262 40.0455H178.332C178.255 40.0455 178.18 40.0146 178.125 39.9596C178.07 39.9047 178.039 39.8302 178.039 39.7525C178.039 39.6748 178.07 39.6003 178.125 39.5453C178.18 39.4904 178.255 39.4595 178.332 39.4595H181.262C181.34 39.4595 181.414 39.4904 181.469 39.5453C181.524 39.6003 181.555 39.6748 181.555 39.7525C181.555 39.8302 181.524 39.9047 181.469 39.9596C181.414 40.0146 181.34 40.0455 181.262 40.0455ZM175.403 40.0455H172.473C172.395 40.0455 172.321 40.0146 172.266 39.9596C172.211 39.9047 172.18 39.8302 172.18 39.7525C172.18 39.6748 172.211 39.6003 172.266 39.5453C172.321 39.4904 172.395 39.4595 172.473 39.4595H175.403C175.48 39.4595 175.555 39.4904 175.61 39.5453C175.665 39.6003 175.696 39.6748 175.696 39.7525C175.696 39.8302 175.665 39.9047 175.61 39.9596C175.555 40.0146 175.48 40.0455 175.403 40.0455ZM169.543 40.0455H166.614C166.536 40.0455 166.461 40.0146 166.406 39.9596C166.351 39.9047 166.321 39.8302 166.321 39.7525C166.321 39.6748 166.351 39.6003 166.406 39.5453C166.461 39.4904 166.536 39.4595 166.614 39.4595H169.543C169.621 39.4595 169.695 39.4904 169.75 39.5453C169.805 39.6003 169.836 39.6748 169.836 39.7525C169.836 39.8302 169.805 39.9047 169.75 39.9596C169.695 40.0146 169.621 40.0455 169.543 40.0455ZM163.684 40.0455H160.754C160.677 40.0455 160.602 40.0146 160.547 39.9596C160.492 39.9047 160.461 39.8302 160.461 39.7525C160.461 39.6748 160.492 39.6003 160.547 39.5453C160.602 39.4904 160.677 39.4595 160.754 39.4595H163.684C163.762 39.4595 163.836 39.4904 163.891 39.5453C163.946 39.6003 163.977 39.6748 163.977 39.7525C163.977 39.8302 163.946 39.9047 163.891 39.9596C163.836 40.0146 163.762 40.0455 163.684 40.0455ZM157.825 40.0455H154.895C154.817 40.0455 154.743 40.0146 154.688 39.9596C154.633 39.9047 154.602 39.8302 154.602 39.7525C154.602 39.6748 154.633 39.6003 154.688 39.5453C154.743 39.4904 154.817 39.4595 154.895 39.4595H157.825C157.902 39.4595 157.977 39.4904 158.032 39.5453C158.087 39.6003 158.117 39.6748 158.117 39.7525C158.117 39.8302 158.087 39.9047 158.032 39.9596C157.977 40.0146 157.902 40.0455 157.825 40.0455ZM151.965 40.0455H149.036C148.958 40.0455 148.884 40.0146 148.829 39.9596C148.774 39.9047 148.743 39.8302 148.743 39.7525C148.743 39.6748 148.774 39.6003 148.829 39.5453C148.884 39.4904 148.958 39.4595 149.036 39.4595H151.966C152.043 39.4595 152.118 39.4904 152.173 39.5453C152.228 39.6003 152.259 39.6748 152.259 39.7525C152.259 39.8302 152.228 39.9047 152.173 39.9596C152.118 40.0146 152.043 40.0455 151.966 40.0455H151.965ZM146.106 40.0455H143.177C143.099 40.0455 143.024 40.0146 142.97 39.9596C142.915 39.9047 142.884 39.8302 142.884 39.7525C142.884 39.6748 142.915 39.6003 142.97 39.5453C143.024 39.4904 143.099 39.4595 143.177 39.4595H146.106C146.184 39.4595 146.259 39.4904 146.314 39.5453C146.368 39.6003 146.399 39.6748 146.399 39.7525C146.399 39.8302 146.368 39.9047 146.314 39.9596C146.259 40.0146 146.184 40.0455 146.106 40.0455ZM140.247 40.0455H137.317C137.24 40.0455 137.165 40.0146 137.11 39.9596C137.055 39.9047 137.024 39.8302 137.024 39.7525C137.024 39.6748 137.055 39.6003 137.11 39.5453C137.165 39.4904 137.24 39.4595 137.317 39.4595H140.247C140.325 39.4595 140.399 39.4904 140.454 39.5453C140.509 39.6003 140.54 39.6748 140.54 39.7525C140.54 39.8302 140.509 39.9047 140.454 39.9596C140.399 40.0146 140.325 40.0455 140.247 40.0455ZM134.388 40.0455H131.458C131.38 40.0455 131.306 40.0146 131.251 39.9596C131.196 39.9047 131.165 39.8302 131.165 39.7525C131.165 39.6748 131.196 39.6003 131.251 39.5453C131.306 39.4904 131.38 39.4595 131.458 39.4595H134.388C134.465 39.4595 134.54 39.4904 134.595 39.5453C134.65 39.6003 134.681 39.6748 134.681 39.7525C134.681 39.8302 134.65 39.9047 134.595 39.9596C134.54 40.0146 134.465 40.0455 134.388 40.0455ZM128.528 40.0455H125.599C125.521 40.0455 125.446 40.0146 125.391 39.9596C125.336 39.9047 125.306 39.8302 125.306 39.7525C125.306 39.6748 125.336 39.6003 125.391 39.5453C125.446 39.4904 125.521 39.4595 125.599 39.4595H128.528C128.606 39.4595 128.68 39.4904 128.735 39.5453C128.79 39.6003 128.821 39.6748 128.821 39.7525C128.821 39.8302 128.79 39.9047 128.735 39.9596C128.68 40.0146 128.606 40.0455 128.528 40.0455ZM122.669 40.0455H119.739C119.661 40.0455 119.587 40.0146 119.532 39.9596C119.477 39.9047 119.446 39.8302 119.446 39.7525C119.446 39.6748 119.477 39.6003 119.532 39.5453C119.587 39.4904 119.661 39.4595 119.739 39.4595H122.669C122.747 39.4595 122.821 39.4904 122.876 39.5453C122.931 39.6003 122.962 39.6748 122.962 39.7525C122.962 39.8302 122.931 39.9047 122.876 39.9596C122.821 40.0146 122.747 40.0455 122.669 40.0455ZM217.103 195.787H175.806C175.107 195.786 174.437 195.508 173.943 195.014C173.448 194.52 173.17 193.849 173.17 193.15V164.088C173.17 163.389 173.448 162.719 173.943 162.224C174.437 161.73 175.107 161.452 175.806 161.451H217.103C217.802 161.452 218.473 161.73 218.967 162.224C219.461 162.719 219.739 163.389 219.74 164.088V193.15C219.739 193.849 219.461 194.52 218.967 195.014C218.473 195.508 217.802 195.786 217.103 195.787H217.103ZM175.806 162.037C175.263 162.038 174.741 162.254 174.357 162.638C173.972 163.023 173.756 163.544 173.756 164.088V193.15C173.756 193.694 173.972 194.215 174.357 194.6C174.741 194.984 175.263 195.201 175.806 195.201H217.103C217.647 195.201 218.168 194.984 218.553 194.6C218.937 194.215 219.153 193.694 219.154 193.15V164.088C219.153 163.544 218.937 163.023 218.553 162.638C218.168 162.254 217.647 162.038 217.103 162.037H175.806Z" fill="black"/>
<path d="M258.86 39.9388H228.763C227.469 39.9388 226.42 40.9881 226.42 42.2826V63.1244C226.42 64.4188 227.469 65.4681 228.763 65.4681H258.86C260.154 65.4681 261.203 64.4188 261.203 63.1244V42.2826C261.203 40.9881 260.154 39.9388 258.86 39.9388Z" fill="#FD6F41"/>
<path d="M69.8706 24.2591C71.1812 24.2591 72.2437 23.1967 72.2437 21.8861C72.2437 20.5755 71.1812 19.513 69.8706 19.513C68.56 19.513 67.4976 20.5755 67.4976 21.8861C67.4976 23.1967 68.56 24.2591 69.8706 24.2591Z" fill="#674CFB"/>
<path d="M78.73 24.2591C80.0406 24.2591 81.103 23.1967 81.103 21.8861C81.103 20.5755 80.0406 19.513 78.73 19.513C77.4194 19.513 76.3569 20.5755 76.3569 21.8861C76.3569 23.1967 77.4194 24.2591 78.73 24.2591Z" fill="#2CA68F"/>
<path d="M87.5893 24.2591C88.8999 24.2591 89.9624 23.1967 89.9624 21.8861C89.9624 20.5755 88.8999 19.513 87.5893 19.513C86.2788 19.513 85.2163 20.5755 85.2163 21.8861C85.2163 23.1967 86.2788 24.2591 87.5893 24.2591Z" fill="#FD6F41"/>
<path d="M261.203 71.4236H210.941C210.863 71.4236 210.789 71.3927 210.734 71.3378C210.679 71.2828 210.648 71.2083 210.648 71.1306C210.648 71.0529 210.679 70.9784 210.734 70.9234C210.789 70.8685 210.863 70.8376 210.941 70.8376H261.203C261.281 70.8376 261.355 70.8685 261.41 70.9234C261.465 70.9784 261.496 71.0529 261.496 71.1306C261.496 71.2083 261.465 71.2828 261.41 71.3378C261.355 71.3927 261.281 71.4236 261.203 71.4236ZM261.203 78.0136H199.222C199.145 78.0136 199.07 77.9827 199.015 77.9278C198.96 77.8729 198.929 77.7983 198.929 77.7206C198.929 77.6429 198.96 77.5684 199.015 77.5135C199.07 77.4585 199.145 77.4277 199.222 77.4277H261.203C261.281 77.4277 261.355 77.4585 261.41 77.5135C261.465 77.5684 261.496 77.6429 261.496 77.7206C261.496 77.7983 261.465 77.8729 261.41 77.9278C261.355 77.9827 261.281 78.0136 261.203 78.0136ZM261.203 84.6037H205.082C205.004 84.6037 204.929 84.5728 204.875 84.5178C204.82 84.4629 204.789 84.3884 204.789 84.3107C204.789 84.233 204.82 84.1585 204.875 84.1035C204.929 84.0486 205.004 84.0177 205.082 84.0177H261.203C261.281 84.0177 261.355 84.0486 261.41 84.1035C261.465 84.1585 261.496 84.233 261.496 84.3107C261.496 84.3884 261.465 84.4629 261.41 84.5178C261.355 84.5728 261.281 84.6037 261.203 84.6037ZM89.3121 130.938L91.9957 144.207H96.1911C96.1911 144.207 89.2102 133.91 89.3121 130.938ZM258.069 62.1371C258.012 62.1371 257.957 62.1208 257.91 62.0902L229.396 43.8089C229.362 43.7891 229.332 43.7626 229.308 43.7309C229.285 43.6992 229.267 43.663 229.258 43.6245C229.249 43.5859 229.247 43.5459 229.254 43.5069C229.26 43.4678 229.275 43.4304 229.296 43.397C229.317 43.3637 229.345 43.335 229.378 43.3127C229.411 43.2905 229.448 43.2751 229.487 43.2675C229.526 43.26 229.566 43.2604 229.604 43.2687C229.643 43.2771 229.68 43.2932 229.712 43.3162L258.226 61.5974C258.279 61.6317 258.32 61.6822 258.342 61.7414C258.364 61.8006 258.366 61.8654 258.348 61.926C258.331 61.9866 258.294 62.0399 258.243 62.0778C258.193 62.1157 258.131 62.1363 258.068 62.1365L258.069 62.1371Z" fill="black"/>
<path d="M229.554 62.1371C229.491 62.1371 229.429 62.1166 229.378 62.0786C229.328 62.0407 229.29 61.9873 229.273 61.9265C229.255 61.8657 229.257 61.8008 229.279 61.7415C229.302 61.6821 229.342 61.6316 229.396 61.5974L257.91 43.3162C257.976 43.2742 258.055 43.2599 258.131 43.2765C258.207 43.2931 258.273 43.3392 258.315 43.4046C258.357 43.4701 258.371 43.5495 258.355 43.6254C258.338 43.7013 258.292 43.7676 258.227 43.8095L229.712 62.0908C229.665 62.1212 229.61 62.1373 229.554 62.1371ZM215.993 191.439C215.937 191.439 215.882 191.423 215.835 191.393L176.759 166.34C176.726 166.319 176.698 166.292 176.676 166.26C176.654 166.229 176.639 166.193 176.631 166.155C176.622 166.118 176.622 166.079 176.628 166.041C176.635 166.003 176.649 165.967 176.67 165.935C176.691 165.902 176.718 165.874 176.749 165.852C176.781 165.83 176.817 165.815 176.854 165.807C176.892 165.798 176.931 165.798 176.969 165.804C177.006 165.811 177.043 165.825 177.075 165.846L216.151 190.9C216.204 190.934 216.245 190.985 216.267 191.044C216.289 191.103 216.291 191.168 216.273 191.228C216.256 191.289 216.219 191.342 216.168 191.38C216.118 191.418 216.056 191.439 215.993 191.439Z" fill="black"/>
<path d="M176.917 191.439C176.854 191.439 176.792 191.418 176.742 191.38C176.691 191.342 176.654 191.289 176.636 191.228C176.619 191.168 176.621 191.103 176.643 191.044C176.665 190.985 176.705 190.934 176.759 190.9L215.835 165.846C215.9 165.804 215.98 165.79 216.055 165.807C216.131 165.823 216.198 165.869 216.24 165.935C216.282 166 216.296 166.08 216.279 166.155C216.263 166.231 216.217 166.298 216.151 166.34L177.074 191.393C177.027 191.423 176.972 191.439 176.916 191.439L176.917 191.439Z" fill="black"/>
<path d="M205.271 136.409L221.009 120.672C221.118 120.562 221.267 120.501 221.423 120.501C221.578 120.501 221.727 120.562 221.837 120.672L231.274 130.109C231.384 130.219 231.533 130.281 231.688 130.281C231.844 130.281 231.993 130.219 232.103 130.109L236.337 125.875C236.447 125.765 236.596 125.704 236.751 125.704C236.906 125.704 237.055 125.765 237.165 125.875L247.567 136.278C247.649 136.36 247.705 136.464 247.727 136.577C247.75 136.691 247.739 136.809 247.695 136.915C247.651 137.022 247.576 137.114 247.48 137.179C247.384 137.243 247.271 137.278 247.155 137.278L205.687 137.41C205.571 137.41 205.458 137.376 205.361 137.311C205.265 137.247 205.189 137.156 205.145 137.049C205.1 136.941 205.088 136.824 205.111 136.71C205.134 136.596 205.189 136.491 205.271 136.409Z" fill="#2CA68F"/>
<path d="M233.024 119.063C235.16 119.063 236.892 117.331 236.892 115.195C236.892 113.06 235.16 111.328 233.024 111.328C230.889 111.328 229.157 113.06 229.157 115.195C229.157 117.331 230.889 119.063 233.024 119.063Z" fill="#FD6F41"/>
<path d="M105.315 191.799H138.208V195.551H105.315V191.799Z" fill="#FED44A"/>
<path d="M20.27 105.397H53.1628V109.15H20.27V105.397Z" fill="#674CFB"/>
<path d="M229.426 150.897H262.319V154.65H229.426V150.897Z" fill="#FD6F41"/>
<path d="M147.562 167.52C147.03 167.52 146.51 167.362 146.068 167.066C145.625 166.771 145.28 166.35 145.077 165.859C144.873 165.367 144.82 164.826 144.924 164.304C145.027 163.782 145.284 163.303 145.66 162.926C146.036 162.55 146.516 162.294 147.038 162.19C147.559 162.086 148.1 162.14 148.592 162.343C149.084 162.547 149.504 162.892 149.8 163.334C150.095 163.777 150.253 164.297 150.253 164.829C150.252 165.542 149.968 166.226 149.464 166.731C148.959 167.235 148.276 167.519 147.562 167.52ZM147.562 162.724C147.146 162.724 146.739 162.848 146.393 163.079C146.047 163.31 145.777 163.639 145.618 164.024C145.459 164.408 145.417 164.831 145.498 165.24C145.579 165.648 145.78 166.023 146.074 166.317C146.369 166.612 146.744 166.812 147.152 166.893C147.56 166.975 147.983 166.933 148.368 166.774C148.752 166.614 149.081 166.344 149.312 165.998C149.544 165.652 149.667 165.245 149.667 164.829C149.667 164.271 149.444 163.736 149.05 163.341C148.655 162.947 148.121 162.725 147.562 162.724ZM199.222 68.1581C198.69 68.158 198.17 68.0001 197.728 67.7044C197.285 67.4087 196.94 66.9884 196.737 66.4968C196.533 66.0051 196.48 65.4641 196.584 64.9423C196.688 64.4204 196.944 63.941 197.32 63.5648C197.697 63.1885 198.176 62.9323 198.698 62.8286C199.22 62.7248 199.761 62.7781 200.253 62.9818C200.744 63.1854 201.164 63.5303 201.46 63.9728C201.756 64.4152 201.913 64.9354 201.913 65.4675C201.913 66.181 201.629 66.865 201.124 67.3694C200.62 67.8739 199.936 68.1575 199.222 68.1581ZM199.222 63.3628C198.806 63.363 198.399 63.4865 198.053 63.7178C197.707 63.9492 197.437 64.2779 197.278 64.6625C197.119 65.0471 197.077 65.4703 197.159 65.8785C197.24 66.2867 197.44 66.6617 197.735 66.956C198.029 67.2503 198.404 67.4507 198.812 67.5318C199.221 67.613 199.644 67.5713 200.028 67.412C200.413 67.2526 200.742 66.9829 200.973 66.6368C201.204 66.2907 201.327 65.8838 201.327 65.4675C201.327 64.9094 201.105 64.3744 200.71 63.9798C200.315 63.5852 199.78 63.3633 199.222 63.3628Z" fill="black"/>
<path d="M224.149 208.285L219.86 207.113L222.977 203.41L224.149 208.285ZM43.1296 73.5687L38.8406 72.3968L41.9578 68.6937L43.1296 73.5687Z" fill="#FED44A"/>
<path d="M51.4453 158.352L47.1562 157.18L50.2734 153.477L51.4453 158.352ZM96.7992 54.7964L92.5102 53.6246L95.6273 49.9214L96.7992 54.7964Z" fill="#674CFB"/>
<path d="M179.061 238.562L174.772 237.39L177.889 233.687L179.061 238.562Z" fill="#2CA68F"/>
</svg>
