<svg width="645" height="645" viewBox="0 0 645 645" fill="none" xmlns="http://www.w3.org/2000/svg">
<g clip-path="url(#clip0_4_332)">
<path d="M50.3767 546.959C50.3767 546.959 93.8922 589.606 196.879 579.221C299.865 568.836 312.691 556.041 376.937 584.593C386.086 588.659 395.941 591.304 405.84 593.265C417.435 595.562 429.245 596.894 441.069 597.632C453.773 598.405 466.509 598.539 479.227 598.033C491.839 597.552 504.432 596.5 516.921 594.805C528.321 593.259 539.664 591.189 550.756 588.287C559.882 585.899 568.96 582.976 577.336 578.816C583.329 575.839 589.457 572.079 593.266 566.73C595.516 563.57 596.882 559.594 596.046 555.808C595.36 552.699 593.05 549.754 591.475 546.959H50.3767Z" fill="white" stroke="#1A1A1A" stroke-width="0.974447" stroke-linecap="round" stroke-linejoin="round"/>
<path d="M341.398 546.494H632.944C633.38 541.377 636.036 503.846 611.482 483.34C583.858 460.27 530.25 465.81 494.476 507.572C443.45 520.546 392.424 533.52 341.398 546.494Z" stroke="#1A1A1A" stroke-width="1.46167" stroke-linecap="round" stroke-linejoin="round"/>
<path d="M49.2085 546.959H591.024C583.031 531.04 568.745 507.099 544.467 484.167C529.993 470.496 479.119 423.918 402.097 423.441C349.021 423.112 309.506 444.835 291.44 456.503C273.768 440.648 247.947 437.991 228.014 449.756C209.547 460.655 199.363 482.029 202.374 503.735C190.739 493.271 166.637 474.694 131.527 468.648C110.214 464.978 78.1934 459.465 58.6549 480.119C35.9215 504.15 48.3459 544.304 49.2085 546.959Z" fill="white" stroke="#1A1A1A" stroke-width="0.974447" stroke-linecap="round" stroke-linejoin="round"/>
<path d="M467.069 19.0516V31.4508H112.327V19.0516C112.326 17.2243 112.686 15.415 113.385 13.7268C114.084 12.0386 115.109 10.5046 116.401 9.21258C117.693 7.92052 119.227 6.89565 120.916 6.1965C122.604 5.49734 124.413 5.1376 126.24 5.13783H453.15C454.978 5.13712 456.788 5.49649 458.477 6.19541C460.165 6.89433 461.7 7.91911 462.992 9.2112C464.285 10.5033 465.31 12.0374 466.009 13.7258C466.709 15.4143 467.069 17.224 467.069 19.0516Z" fill="#1C0311" stroke="#1A1A1A" stroke-width="0.487225" stroke-linecap="round" stroke-linejoin="round"/>
<path d="M467.069 31.4508V199.717C467.069 201.544 466.709 203.354 466.009 205.042C465.31 206.731 464.285 208.265 462.992 209.557C461.7 210.849 460.165 211.874 458.477 212.573C456.788 213.272 454.978 213.631 453.15 213.63H126.24C124.413 213.63 122.604 213.271 120.916 212.572C119.227 211.872 117.693 210.848 116.401 209.555C115.109 208.263 114.084 206.73 113.385 205.041C112.686 203.353 112.326 201.544 112.327 199.717V31.4508H467.069Z" fill="white" stroke="#1A1A1A" stroke-width="0.974447" stroke-linecap="round" stroke-linejoin="round"/>
<path d="M479.72 -0.429794H92.5889V13.2337H479.72V-0.429794Z" fill="white" stroke="#1A1A1A" stroke-width="0.974447" stroke-linecap="round" stroke-linejoin="round"/>
<path d="M112.325 59.7907H467.069" stroke="#1A1A1A" stroke-width="0.974447" stroke-linecap="round" stroke-linejoin="round" stroke-dasharray="5.85 5.85"/>
<path d="M343 75.4784H133.073V115.963H343V75.4784Z" stroke="#1A1A1A" stroke-width="0.974447" stroke-linecap="round" stroke-linejoin="round" stroke-dasharray="5.85 5.85"/>
<path d="M343 126.59H133.073V199.462H343V126.59Z" stroke="#1A1A1A" stroke-width="0.974447" stroke-linecap="round" stroke-linejoin="round" stroke-dasharray="5.85 5.85"/>
<path d="M368.67 33.4758V298.925" stroke="#1A1A1A" stroke-width="0.974447" stroke-linecap="round" stroke-linejoin="round" stroke-dasharray="5.85 5.85"/>
<path d="M374.63 55.2362H362.822V65.3573H374.63V55.2362Z" fill="#1C0311" stroke="#1A1A1A" stroke-width="0.487225" stroke-linecap="round" stroke-linejoin="round"/>
<path d="M24.1028 546.959H636.766" stroke="#1A1A1A" stroke-width="1.46167" stroke-linecap="round" stroke-linejoin="round"/>
<path d="M523.433 529.169L529.49 546.494H535.394L542.31 529.169H523.433Z" fill="#1C0311" stroke="#1A1A1A" stroke-width="0.487225" stroke-linecap="round" stroke-linejoin="round"/>
<path d="M445.26 529.169L451.317 546.494H457.221L464.137 529.169H445.26Z" fill="#1C0311" stroke="#1A1A1A" stroke-width="0.487225" stroke-linecap="round" stroke-linejoin="round"/>
<path d="M491.023 425.944C491.023 425.944 540.279 415.995 559.846 435.561C579.413 455.128 576.04 496.914 574.016 507.195C571.991 517.475 569.63 530.337 548.713 531.534C527.796 532.731 468.419 538.7 437.212 526.761C416.801 504.873 413.203 437.902 413.203 437.902C413.203 437.902 426.473 419.338 455.261 423.414C484.05 427.491 491.023 425.944 491.023 425.944Z" fill="white" stroke="#1A1A1A" stroke-width="0.974447" stroke-linecap="round" stroke-linejoin="round"/>
<path d="M500.754 425.477C500.754 425.477 514.976 430.61 515.988 438.475L500.754 425.477Z" fill="white"/>
<path d="M500.754 425.477C500.754 425.477 514.976 430.61 515.988 438.475" stroke="#1A1A1A" stroke-width="0.974447" stroke-linecap="round" stroke-linejoin="round"/>
<path d="M468.756 429.758C468.756 429.758 462.177 432.411 462.009 439.375L468.756 429.758Z" fill="white"/>
<path d="M468.756 429.758C468.756 429.758 462.177 432.411 462.009 439.375" stroke="#1A1A1A" stroke-width="0.974447" stroke-linecap="round" stroke-linejoin="round"/>
<path d="M420.681 439.375C420.681 439.872 435.531 450.411 455.936 445.344C476.341 440.278 488.492 447.832 491.866 450.485C495.24 453.138 535.555 457.947 546.52 449.324L557.484 440.702" fill="white"/>
<path d="M420.681 439.375C420.681 439.872 435.531 450.411 455.936 445.344C476.341 440.278 488.492 447.832 491.866 450.485C495.24 453.138 535.555 457.947 546.52 449.324L557.484 440.702" stroke="#1A1A1A" stroke-width="0.974447" stroke-linecap="round" stroke-linejoin="round"/>
<path d="M514.186 272.839L499.794 265.868C499.794 265.868 490.277 258.618 481.214 251.793C481.76 251.189 482.275 250.557 482.757 249.9C474.679 243.166 472.038 233.119 471.195 227.407C467.935 224.013 469.653 217.402 471.706 212.452C476.344 212.281 479.974 210.426 479.383 206.039C478.791 201.657 474.409 200.895 472.804 202.158C471.2 200.388 472.128 198.789 473.647 194.231C466.378 193.114 464.598 185.429 464.168 182.102C463.756 181.875 463.529 181.752 463.529 181.752C463.529 181.752 458.806 180.739 453.406 187.483C452.123 189.087 450.358 191.373 448.489 194.018C446.383 191.614 443.283 186.446 448.063 180.289C454.698 171.742 464.593 176.579 465.833 177.478C475.052 176.125 490.348 178.15 494.394 200.644C498.445 223.133 511.715 237.529 520.262 243.824C528.809 250.123 526.334 266.767 514.186 272.839Z" fill="#1C0311" stroke="#1A1A1A" stroke-width="0.487225" stroke-linecap="round" stroke-linejoin="round"/>
<path d="M437.212 260.188C437.212 260.188 409.379 281.718 393.86 308.654C390.823 288.696 380.365 241.802 376.991 243.489C369.569 250.236 363.834 248.886 362.822 252.26C361.81 255.634 361.81 333.904 375.979 338.289C390.149 342.675 440.417 340.314 440.417 340.314L445.54 319.734" fill="#54CAFA"/>
<path d="M437.212 260.188C437.212 260.188 409.379 281.718 393.86 308.654C390.823 288.696 380.365 241.802 376.991 243.489C369.569 250.236 363.834 248.886 362.822 252.26C361.81 255.634 361.81 333.904 375.979 338.289C390.149 342.675 440.417 340.314 440.417 340.314L445.54 319.734" stroke="#1A1A1A" stroke-width="0.974447" stroke-linecap="round" stroke-linejoin="round"/>
<path d="M364.104 253.304C364.104 253.304 364.018 255.638 369.124 255.076C374.23 254.513 378.254 249.71 377.735 246.162C377.215 242.613 373.797 241.921 371.417 242.7C369.037 243.479 362.936 247.638 364.104 253.304Z" fill="#1C0311" stroke="#1A1A1A" stroke-width="0.487225" stroke-linecap="round" stroke-linejoin="round"/>
<path d="M436.908 518.651C435.753 516.498 434.906 515.071 434.906 515.071C434.906 515.071 417.251 517.545 416.508 517.882C416.128 518.055 416.421 519.913 416.676 521.985C423.098 524.981 431.57 523.005 436.908 518.651Z" fill="#1C0311" stroke="#1A1A1A" stroke-width="0.487225" stroke-linecap="round" stroke-linejoin="round"/>
<path d="M436.908 518.651C431.57 523.006 423.098 524.982 416.676 521.985C416.919 523.956 417.127 526.12 416.689 527.216C410.728 528.678 395.434 537.45 391.161 540.149C387.625 542.382 382.014 547.156 404.487 546.953C409.175 546.91 443.566 542.173 443.341 535.538C443.188 531.032 439.353 523.209 436.908 518.651Z" fill="white" stroke="#1A1A1A" stroke-width="0.974447" stroke-linecap="round" stroke-linejoin="round"/>
<path d="M310.525 522.29C316.346 525.488 322.93 527.033 329.566 526.758C329.166 524.825 328.668 522.913 328.073 521.031C328.073 521.031 318.177 517.095 313.229 517.433C313.003 518.372 311.784 519.939 309.925 521.733C310.092 521.952 310.294 522.14 310.525 522.29Z" fill="#1C0311" stroke="#1A1A1A" stroke-width="0.487225" stroke-linecap="round" stroke-linejoin="round"/>
<path d="M329.566 526.757C322.93 527.033 316.346 525.488 310.525 522.29C310.294 522.14 310.092 521.952 309.925 521.733C306.217 525.314 299.953 529.805 293.886 532.052C284.777 535.426 275.556 541.948 279.267 546.334C282.978 550.72 295.685 549.708 303.22 547.796C310.755 545.884 319.076 545.547 325.824 543.86C332.571 542.173 330.322 531.939 329.872 528.566C329.794 527.978 329.687 527.367 329.566 526.757Z" fill="white" stroke="#1A1A1A" stroke-width="0.974447" stroke-linecap="round" stroke-linejoin="round"/>
<path d="M438.392 354.933C438.392 354.933 379.69 350.21 357.649 379.673C335.607 409.137 315.815 468.964 310.867 515.521C309.742 521.593 325.486 523.393 328.41 522.718C335.832 517.095 372.493 446.697 383.963 434.102C395.434 421.507 410.391 385.69 410.391 385.69L458.836 378.605L451.893 354.655" fill="white"/>
<path d="M438.392 354.933C438.392 354.933 379.69 350.21 357.649 379.673C335.607 409.137 315.815 468.964 310.867 515.521C309.742 521.593 325.486 523.393 328.41 522.718C335.832 517.095 372.493 446.697 383.963 434.102C395.434 421.507 410.391 385.69 410.391 385.69L458.836 378.605L451.893 354.655" stroke="#1A1A1A" stroke-width="0.974447" stroke-linecap="round" stroke-linejoin="round"/>
<path d="M528.808 369.327C528.808 369.327 547.026 402.164 506.316 423.081C465.607 443.998 408.029 403.964 408.029 403.964C408.029 403.964 440.417 469.189 437.212 515.408C434.681 519.794 415.789 521.143 413.427 518.445C411.066 515.746 355.737 422.969 374.967 390.581C394.197 358.194 447.164 356.507 447.164 356.507L528.808 369.327Z" fill="white" stroke="#1A1A1A" stroke-width="0.974447" stroke-linecap="round" stroke-linejoin="round"/>
<path d="M439.541 360.441C439.541 360.441 479.91 378.574 503.582 376.134C527.255 373.694 523.66 367.595 523.66 367.595L439.541 354.21L434.761 357.815L439.541 360.441Z" fill="#1C0311" stroke="#1A1A1A" stroke-width="0.487225" stroke-linecap="round" stroke-linejoin="round"/>
<path d="M432.995 268.454C432.995 268.454 415.452 286.335 419.838 322.433C422.537 347.061 432.995 356.507 432.995 356.507C432.995 356.507 498.445 375.737 513.289 373.376C528.133 371.014 524.856 358.532 525.314 347.736C525.772 336.94 515.145 263.393 498.951 256.646C482.757 249.899 476.178 248.549 476.178 248.549L450.201 255.971L437.904 260.524" fill="#54CAFA"/>
<path d="M432.995 268.454C432.995 268.454 415.452 286.335 419.838 322.433C422.537 347.061 432.995 356.507 432.995 356.507C432.995 356.507 498.445 375.737 513.289 373.376C528.133 371.014 524.856 358.532 525.314 347.736C525.772 336.94 515.145 263.393 498.951 256.646C482.757 249.899 476.178 248.549 476.178 248.549L450.201 255.971L437.904 260.524" stroke="#1A1A1A" stroke-width="0.974447" stroke-linecap="round" stroke-linejoin="round"/>
<path d="M481.852 249.108C481.852 249.108 506.204 252.766 524.928 278.912C543.652 305.059 543.989 357.182 531.507 370.002C519.024 382.822 484.106 395.811 459.478 350.097C456.779 340.145 463.189 332.723 467.575 333.06C473.648 333.398 490.348 336.771 502.155 350.941C510.084 349.254 515.538 340.87 510.14 308.654" fill="#54CAFA"/>
<path d="M481.852 249.108C481.852 249.108 506.204 252.766 524.928 278.912C543.652 305.059 543.989 357.182 531.507 370.002C519.024 382.822 484.106 395.811 459.478 350.097C456.779 340.145 463.189 332.723 467.575 333.06C473.648 333.398 490.348 336.771 502.155 350.941C510.084 349.254 515.538 340.87 510.14 308.654" stroke="#1A1A1A" stroke-width="0.974447" stroke-linecap="round" stroke-linejoin="round"/>
<path d="M469.515 335.169C469.515 335.169 464.044 329.771 451.893 334.747C444.465 337.783 444.634 342.085 444.634 342.085L472.636 342.422C472.636 342.422 471.455 337.277 469.515 335.169Z" fill="white" stroke="#1A1A1A" stroke-width="0.974447" stroke-linecap="round" stroke-linejoin="round"/>
<path d="M432.77 334.087H360.798V340.975H432.77V334.087Z" fill="white" stroke="#1A1A1A" stroke-width="0.974447" stroke-linecap="round" stroke-linejoin="round"/>
<path d="M368.67 340.95H364.812L343 287.907H346.853L368.67 340.95Z" fill="#1C0311" stroke="#1A1A1A" stroke-width="0.487225" stroke-linecap="round" stroke-linejoin="round"/>
<path d="M364.813 340.95H279.125L256.631 287.907H343L364.813 340.95Z" fill="white" stroke="#1A1A1A" stroke-width="0.974447" stroke-linecap="round" stroke-linejoin="round"/>
<path d="M483.263 340.975H223.151V351.278H483.263V340.975Z" fill="#1C0311" stroke="#1A1A1A" stroke-width="0.487225" stroke-linecap="round" stroke-linejoin="round"/>
<path d="M375.811 246.019C375.811 246.019 378.847 230.668 376.232 226.873C373.618 223.078 370.413 220.21 368.304 220.21C366.196 220.21 359.954 225.271 359.954 229.15C359.954 233.03 359.448 240.701 361.304 243.444C363.159 246.187 365.352 249.645 365.352 252.007C365.352 254.369 373.871 254.116 375.811 246.019Z" fill="white" stroke="#1A1A1A" stroke-width="0.974447" stroke-linecap="round" stroke-linejoin="round"/>
<path d="M372.268 229.589C372.268 229.589 375.296 242.731 370.897 243.545C366.499 244.359 364.813 242.974 364.813 242.974" fill="white"/>
<path d="M372.268 229.589C372.268 229.589 375.296 242.731 370.897 243.545C366.499 244.359 364.813 242.974 364.813 242.974" stroke="#1A1A1A" stroke-width="0.974447" stroke-linecap="round" stroke-linejoin="round"/>
<path d="M471.196 227.407C467.935 224.013 469.653 217.402 471.707 212.452C476.345 212.281 479.974 210.426 479.383 206.039C478.791 201.657 474.409 200.895 472.805 202.159C471.2 200.389 472.128 198.789 473.647 194.232C466.378 193.115 464.598 185.429 464.168 182.102C463.756 181.875 463.529 181.752 463.529 181.752C463.529 181.752 458.806 180.739 453.406 187.483C452.123 189.087 450.358 191.373 448.489 194.019C442.488 202.509 435.451 214.686 440.079 219.702C442.933 222.805 446.798 224.79 450.983 225.301L451.38 231.008C451.887 242.31 444.13 254.117 437.211 260.189C456.714 269.862 474.045 259.768 481.214 251.793C481.76 251.189 482.275 250.557 482.757 249.9C474.679 243.166 472.038 233.119 471.196 227.407Z" fill="white" stroke="#1A1A1A" stroke-width="0.974447" stroke-linecap="round" stroke-linejoin="round"/>
<path d="M457.363 224.388C457.363 224.388 452.574 228.608 451.074 227.916V225.723L457.363 224.388Z" fill="#1C0311" stroke="#1A1A1A" stroke-width="0.487225" stroke-linecap="round" stroke-linejoin="round"/>
<path d="M457.454 224.071C455.413 224.949 453.204 225.369 450.983 225.301L457.454 224.071Z" fill="white"/>
<path d="M457.454 224.071C455.413 224.949 453.204 225.369 450.983 225.301" stroke="#1A1A1A" stroke-width="0.974447" stroke-linecap="round" stroke-linejoin="round"/>
<path d="M104.868 435.677C101.442 430.825 96.0076 426.993 90.0676 427.048C82.5872 427.116 76.5045 433.027 69.3211 435.114C59.6644 437.92 48.4652 432.758 43.9103 423.793C39.3555 414.827 41.5756 403.057 48.7561 396.017C52.4824 392.363 57.6986 389.278 58.3377 384.099C58.8598 379.868 55.9384 375.947 52.582 373.318C49.2257 370.69 45.2733 368.807 42.293 365.759C36.3116 359.641 35.6899 349.042 40.9151 342.267C46.1404 335.492 56.5502 333.4 63.9866 337.632C67.9236 339.872 70.9624 343.569 75.1275 345.35C81.1775 347.936 88.1271 345.937 94.299 343.658C100.471 341.378 107.038 338.789 113.441 340.304C115.943 340.896 118.261 342.094 120.191 343.792C122.121 345.49 123.605 347.637 124.511 350.043C125.417 352.449 125.718 355.041 125.387 357.59C125.056 360.14 124.104 362.569 122.613 364.664C119.818 368.594 115.03 371.693 114.818 376.511C114.603 381.42 119.556 385.121 124.379 386.065C129.202 387.009 134.219 386.166 139.078 386.9C143.937 387.634 149.109 390.79 149.531 395.687C150.189 403.319 139.305 408.377 140.203 415.985C140.62 419.524 143.512 422.158 145.706 424.966C148.303 428.288 150.107 432.335 150.242 436.55C150.377 440.764 148.693 445.122 145.381 447.731C141.204 451.02 135.418 451.071 130.102 450.972C125.53 450.887 116.64 452.547 112.535 450.216C108.541 447.946 107.687 439.435 104.868 435.677Z" fill="white" stroke="#1A1A1A" stroke-width="0.974447" stroke-linecap="round" stroke-linejoin="round"/>
<path d="M98.9963 314.164C98.4708 307.745 101.808 300.515 108.021 298.816C112.217 297.669 117.455 298.941 120.418 295.756C123.97 291.94 120.799 285.695 121.888 280.597C122.579 277.368 125.081 274.701 128.083 273.328C131.086 271.955 134.528 271.765 137.791 272.267C141.175 272.787 144.412 274.015 147.29 275.87C150.168 277.725 152.623 280.165 154.494 283.033C156.365 285.9 157.611 289.13 158.151 292.511C158.69 295.892 158.511 299.349 157.624 302.657C156.027 308.618 152.137 314.41 153.462 320.437C154.936 327.143 162.356 331.217 164.046 337.872C165.159 342.254 163.538 346.851 161.537 350.905C159.536 354.959 157.092 358.925 156.414 363.395C155.553 369.069 157.644 374.714 159.262 380.221C160.881 385.727 161.992 391.906 159.368 397.011C157.323 400.99 153.232 403.651 148.895 404.752C144.559 405.853 139.98 405.55 135.574 404.773C129.24 403.656 122.999 401.532 117.737 397.833C112.476 394.134 108.249 388.762 106.658 382.53C105.004 376.051 106.33 369.371 108.645 363.232C110.479 358.365 114.167 353.196 113.933 347.789C113.694 342.252 109.401 337.067 106.665 332.522C103.253 326.852 99.5498 320.927 98.9963 314.164Z" fill="white" stroke="#1A1A1A" stroke-width="0.974447" stroke-linecap="round" stroke-linejoin="round"/>
<path d="M62.7878 358.307C62.7878 358.307 96.9746 369.552 106.196 396.992C115.417 424.431 124.553 449.214 138.627 450.54" fill="white"/>
<path d="M62.7878 358.307C62.7878 358.307 96.9746 369.552 106.196 396.992C115.417 424.431 124.553 449.214 138.627 450.54" stroke="#1A1A1A" stroke-width="0.974447" stroke-linecap="round" stroke-linejoin="round"/>
<path d="M97.4247 361.568C97.4247 362.13 93.3876 369.967 96.5307 380.499L97.4247 361.568Z" fill="white"/>
<path d="M97.4247 361.568C97.4247 362.13 93.3876 369.967 96.5307 380.499" stroke="#1A1A1A" stroke-width="0.974447" stroke-linecap="round" stroke-linejoin="round"/>
<path d="M87.4233 406.775C87.4233 406.775 105.486 420.058 112.87 415.947L87.4233 406.775Z" fill="white"/>
<path d="M87.4233 406.775C87.4233 406.775 105.486 420.058 112.87 415.947" stroke="#1A1A1A" stroke-width="0.974447" stroke-linecap="round" stroke-linejoin="round"/>
<path d="M68.0732 372.251C68.0732 372.251 82.9326 379.542 87.4233 371.904L68.0732 372.251Z" fill="white"/>
<path d="M68.0732 372.251C68.0732 372.251 82.9326 379.542 87.4233 371.904" stroke="#1A1A1A" stroke-width="0.974447" stroke-linecap="round" stroke-linejoin="round"/>
<path d="M137.009 298.925C137.009 298.925 123.739 362.58 135.435 392.493L137.009 298.925Z" fill="white"/>
<path d="M137.009 298.925C137.009 298.925 123.739 362.58 135.435 392.493" stroke="#1A1A1A" stroke-width="0.974447" stroke-linecap="round" stroke-linejoin="round"/>
<path d="M142.632 314.429C142.632 314.429 137.916 324.44 132.514 327.991L142.632 314.429Z" fill="white"/>
<path d="M142.632 314.429C142.632 314.429 137.916 324.44 132.514 327.991" stroke="#1A1A1A" stroke-width="0.974447" stroke-linecap="round" stroke-linejoin="round"/>
<path d="M118.116 329.968C118.341 330.867 122.423 343.908 130.616 345.709L118.116 329.968Z" fill="white"/>
<path d="M118.116 329.968C118.341 330.867 122.423 343.908 130.616 345.709" stroke="#1A1A1A" stroke-width="0.974447" stroke-linecap="round" stroke-linejoin="round"/>
<path d="M130.616 302.528C130.616 302.528 130.514 310.477 134.611 312.501L130.616 302.528Z" fill="white"/>
<path d="M130.616 302.528C130.616 302.528 130.514 310.477 134.611 312.501" stroke="#1A1A1A" stroke-width="0.974447" stroke-linecap="round" stroke-linejoin="round"/>
<path d="M169.919 455.018C168.642 447.663 174.412 440.742 181.039 437.305C187.666 433.868 195.249 432.771 202.163 429.958C215.859 424.387 226.431 411.711 229.455 397.238C230.836 390.626 230.393 382.92 225.509 378.253C223.788 376.61 221.645 375.475 219.839 373.926C218.033 372.377 216.509 370.174 216.727 367.805C216.953 365.342 218.975 363.428 221.087 362.142C223.199 360.855 225.57 359.914 227.331 358.178C230.692 354.863 230.977 349.432 229.651 344.901C226.671 334.719 216.085 327.328 205.499 328.038C194.912 328.749 185.409 337.488 183.816 347.978C183.383 350.829 183.391 353.976 181.559 356.204C178.837 359.514 173.588 358.993 169.64 357.327C165.691 355.66 161.851 353.11 157.569 353.29C150.839 353.573 146.43 360.221 143.173 366.116C138.445 374.672 133.687 383.3 130.757 392.625C127.827 401.951 126.817 412.139 129.674 421.487C133.434 433.791 143.26 443.127 152.701 451.866C158.362 450.965 164.985 452.101 169.919 455.018Z" fill="white" stroke="#1A1A1A" stroke-width="0.974447" stroke-linecap="round" stroke-linejoin="round"/>
<path d="M157.364 448.272C157.364 448.272 157.364 410.486 199.198 367.641L157.364 448.272Z" fill="white"/>
<path d="M157.364 448.272C157.364 448.272 157.364 410.486 199.198 367.641" stroke="#1A1A1A" stroke-width="0.974447" stroke-linecap="round" stroke-linejoin="round"/>
<path d="M210.668 370.592C210.668 370.592 211.592 376.904 191.984 375.435L210.668 370.592Z" fill="white"/>
<path d="M210.668 370.592C210.668 370.592 211.592 376.904 191.984 375.435" stroke="#1A1A1A" stroke-width="0.974447" stroke-linecap="round" stroke-linejoin="round"/>
<path d="M177.859 373.798C177.859 373.798 172.78 385.845 180.211 390.406L177.859 373.798Z" fill="white"/>
<path d="M177.859 373.798C177.859 373.798 172.78 385.845 180.211 390.406" stroke="#1A1A1A" stroke-width="0.974447" stroke-linecap="round" stroke-linejoin="round"/>
<path d="M197.089 400.45C197.089 400.45 176.207 408.763 169.906 407.305L197.089 400.45Z" fill="white"/>
<path d="M197.089 400.45C197.089 400.45 176.207 408.763 169.906 407.305" stroke="#1A1A1A" stroke-width="0.974447" stroke-linecap="round" stroke-linejoin="round"/>
<path d="M156.521 407.477C156.521 407.477 164.506 417.924 162.455 424.418L156.521 407.477Z" fill="white"/>
<path d="M156.521 407.477C156.521 407.477 164.506 417.924 162.455 424.418" stroke="#1A1A1A" stroke-width="0.974447" stroke-linecap="round" stroke-linejoin="round"/>
<path d="M179.968 444.561L104.734 446.248L105.928 452.995H179.039L179.968 444.561Z" fill="white" stroke="#1A1A1A" stroke-width="0.974447" stroke-linecap="round" stroke-linejoin="round"/>
<path d="M106.641 457.022L117.271 517.095H171.985L178.596 457.022H106.641Z" fill="white" stroke="#1A1A1A" stroke-width="0.974447" stroke-linecap="round" stroke-linejoin="round"/>
<path d="M179.039 452.995H105.928L106.641 457.023H178.596L179.039 452.995Z" fill="#1C0311" stroke="#1A1A1A" stroke-width="0.487225" stroke-linecap="round" stroke-linejoin="round"/>
<path d="M117.271 517.095L123.964 554.922H167.822L171.985 517.095H117.271Z" fill="#1C0311" stroke="#1A1A1A" stroke-width="0.487225" stroke-linecap="round" stroke-linejoin="round"/>
<path d="M146.691 41.404H137.674C136.437 41.404 135.435 42.4064 135.435 43.6428V49.2863C135.435 50.5228 136.437 51.5251 137.674 51.5251H146.691C147.927 51.5251 148.93 50.5228 148.93 49.2863V43.6428C148.93 42.4064 147.927 41.404 146.691 41.404Z" fill="white" stroke="#1A1A1A" stroke-width="0.974447" stroke-linecap="round" stroke-linejoin="round"/>
<path d="M254.161 42.2475H170.718C169.584 42.2475 168.666 43.1663 168.666 44.2997V49.4729C168.666 50.6063 169.584 51.5251 170.718 51.5251H254.161C255.294 51.5251 256.213 50.6063 256.213 49.4729V44.2997C256.213 43.1663 255.294 42.2475 254.161 42.2475Z" fill="white" stroke="#1A1A1A" stroke-width="0.974447" stroke-linecap="round" stroke-linejoin="round"/>
<path d="M81.3324 279.657C92.033 279.657 100.708 270.982 100.708 260.281C100.708 249.581 92.033 240.906 81.3324 240.906C70.6318 240.906 61.9573 249.581 61.9573 260.281C61.9573 270.982 70.6318 279.657 81.3324 279.657Z" fill="white" stroke="#1A1A1A" stroke-width="0.974447" stroke-linecap="round" stroke-linejoin="round"/>
<path d="M68.5543 210.911C73.2741 210.911 77.1002 207.085 77.1002 202.365C77.1002 197.646 73.2741 193.82 68.5543 193.82C63.8345 193.82 60.0083 197.646 60.0083 202.365C60.0083 207.085 63.8345 210.911 68.5543 210.911Z" fill="white" stroke="#1A1A1A" stroke-width="0.974447" stroke-linecap="round" stroke-linejoin="round"/>
<path d="M508.371 64.8857C518.545 64.8857 526.792 56.6383 526.792 46.4646C526.792 36.2909 518.545 28.0434 508.371 28.0434C498.197 28.0434 489.95 36.2909 489.95 46.4646C489.95 56.6383 498.197 64.8857 508.371 64.8857Z" fill="white" stroke="#1A1A1A" stroke-width="0.974447" stroke-linecap="round" stroke-linejoin="round"/>
<path d="M518.265 54.6834H498.477C498.477 54.6834 498.293 52.3933 499.483 51.8421C500.676 51.2936 501.59 40.0265 504.982 38.6524C505.511 38.4368 505.957 38.2555 506.334 38.1037C506.226 37.842 506.17 37.5615 506.17 37.2782C506.17 36.9536 506.241 36.6328 506.38 36.3391C506.518 36.0454 506.72 35.7859 506.97 35.5793C507.221 35.3727 507.514 35.2241 507.828 35.1442C508.143 35.0643 508.472 35.0551 508.79 35.1172C509.109 35.1792 509.41 35.3111 509.672 35.5033C509.933 35.6955 510.149 35.9432 510.304 36.2287C510.458 36.5142 510.548 36.8304 510.566 37.1546C510.584 37.4788 510.53 37.8029 510.408 38.1037C510.782 38.2555 511.231 38.4368 511.76 38.6524C515.15 40.0265 516.066 51.2936 517.256 51.8421C518.446 52.3933 518.265 54.6834 518.265 54.6834Z" fill="#1A1A1A" stroke="#1A1A1A" stroke-width="0.974447" stroke-linecap="round" stroke-linejoin="round"/>
<path d="M511.537 54.6834C511.537 55.5234 511.203 56.329 510.609 56.9229C510.015 57.5168 509.21 57.8505 508.37 57.8505C507.53 57.8505 506.724 57.5168 506.13 56.9229C505.536 56.329 505.203 55.5234 505.203 54.6834H511.537Z" fill="#1A1A1A" stroke="#1A1A1A" stroke-width="0.974447" stroke-linecap="round" stroke-linejoin="round"/>
<path d="M368.67 245.166V297.438" stroke="#1A1A1A" stroke-width="0.974447" stroke-linecap="round" stroke-linejoin="round" stroke-dasharray="5.85 5.85"/>
<path d="M57.0357 132.097L53.1958 137.577C48.5647 134.332 43.0253 132.638 37.3718 132.736C31.7183 132.835 26.2412 134.721 21.7257 138.124L17.7009 132.778C23.3444 128.523 30.1908 126.165 37.2576 126.043C44.3243 125.921 51.2482 128.04 57.0357 132.097Z" fill="white" stroke="#1A1A1A" stroke-width="0.974447" stroke-linecap="round" stroke-linejoin="round"/>
<path d="M67.0023 117.589L61.2165 125.845C54.2386 120.957 45.8919 118.404 37.3734 118.552C28.8549 118.7 20.6021 121.542 13.7983 126.67L7.73389 118.615C16.2373 112.204 26.5532 108.651 37.2012 108.466C47.8492 108.282 58.282 111.476 67.0023 117.589Z" fill="white" stroke="#1A1A1A" stroke-width="0.974447" stroke-linecap="round" stroke-linejoin="round"/>
<path d="M49.3538 143.06L45.5101 148.545C43.1956 146.922 40.4261 146.074 37.5994 146.122C34.7726 146.171 32.0341 147.115 29.777 148.817L25.7522 143.469C29.1386 140.917 33.2464 139.502 37.4864 139.429C41.7265 139.355 45.8809 140.626 49.3538 143.06Z" fill="white" stroke="#1A1A1A" stroke-width="0.974447" stroke-linecap="round" stroke-linejoin="round"/>
<path d="M44.2272 161.467C43.9181 162.477 43.3744 163.399 42.6405 164.159C41.9067 164.918 41.0035 165.493 40.0049 165.837C39.0062 166.18 37.9404 166.283 36.8947 166.135C35.8489 165.988 34.8528 165.595 33.9879 164.989C33.123 164.383 32.4137 163.581 31.9182 162.649C31.4227 161.716 31.1549 160.679 31.1367 159.623C31.1186 158.567 31.3506 157.522 31.8138 156.573C32.2771 155.624 32.9583 154.798 33.8019 154.163H33.8038C34.9326 153.312 36.3017 152.841 37.7147 152.817C39.1277 152.793 40.5121 153.217 41.6694 154.028C42.8268 154.839 43.6976 155.995 44.1571 157.332C44.6166 158.668 44.6411 160.116 44.2272 161.467Z" fill="white" stroke="#1A1A1A" stroke-width="0.974447" stroke-linecap="round" stroke-linejoin="round"/>
</g>
<defs>
<clipPath id="clip0_4_332">
<rect width="644.5" height="644.5" fill="white"/>
</clipPath>
</defs>
</svg>
