<svg width="224" height="57" viewBox="0 0 224 57" fill="none" xmlns="http://www.w3.org/2000/svg">
<path d="M85.9542 15.9246V56.0904H76.1703V39.555H60.9505V56.0904H51.1666V15.9246H60.9505V31.6591H76.1703V15.9246H85.9542Z" fill="#1A1B1D"/>
<path d="M95.6491 20.8453C93.9324 20.8453 92.5212 20.3494 91.4153 19.3577C90.3471 18.3277 89.813 17.069 89.813 15.5814C89.813 14.0556 90.3471 12.7969 91.4153 11.8051C92.5212 10.7753 93.9324 10.2603 95.6491 10.2603C97.3274 10.2603 98.701 10.7753 99.7685 11.8051C100.875 12.7969 101.428 14.0556 101.428 15.5814C101.428 17.069 100.875 18.3277 99.7685 19.3577C98.701 20.3494 97.3274 20.8453 95.6491 20.8453ZM100.512 24.1638V56.0905H90.7285V24.1638H100.512Z" fill="#1A1B1D"/>
<path d="M123.108 47.7938V56.0905H118.131C114.583 56.0905 111.818 55.2321 109.835 53.5155C107.851 51.7612 106.859 48.9192 106.859 44.9901V32.2884H102.969V24.1638H106.859V16.3824H116.643V24.1638H123.051V32.2884H116.643V45.1052C116.643 46.0583 116.872 46.7451 117.329 47.1649C117.788 47.5839 118.55 47.7938 119.619 47.7938H123.108Z" fill="#1A1B1D"/>
<path d="M156.365 39.6122C156.365 40.5277 156.308 41.4815 156.194 42.473H134.051C134.204 44.4567 134.833 45.9823 135.939 47.0505C137.083 48.0804 138.476 48.5949 140.116 48.5949C142.557 48.5949 144.255 47.5651 145.208 45.5054H155.621C155.087 47.6035 154.115 49.4916 152.703 51.1699C151.33 52.8482 149.595 54.1639 147.497 55.1178C145.399 56.0717 143.053 56.5479 140.459 56.5479C137.332 56.5479 134.547 55.8806 132.106 54.5453C129.664 53.2108 127.757 51.3031 126.384 48.8236C125.011 46.3449 124.324 43.4457 124.324 40.1267C124.324 36.8085 124.992 33.9096 126.327 31.4303C127.7 28.9509 129.607 27.0437 132.048 25.7086C134.489 24.3736 137.293 23.7061 140.459 23.7061C143.549 23.7061 146.295 24.3545 148.698 25.6514C151.102 26.9483 152.97 28.7983 154.306 31.2014C155.678 33.6045 156.365 36.4081 156.365 39.6122ZM146.353 37.0372C146.353 35.3591 145.78 34.0241 144.636 33.0323C143.492 32.0406 142.061 31.5447 140.345 31.5447C138.704 31.5447 137.313 32.0215 136.168 32.975C135.062 33.9287 134.375 35.2828 134.108 37.0372H146.353Z" fill="#1A1B1D"/>
<path d="M157.293 40.1267C157.293 36.8085 157.96 33.9096 159.296 31.4303C160.668 28.9509 162.557 27.0437 164.96 25.7086C167.401 24.3736 170.185 23.7061 173.313 23.7061C177.318 23.7061 180.656 24.755 183.326 26.853C186.035 28.9509 187.808 31.9071 188.647 35.7215H178.234C177.357 33.2802 175.66 32.0596 173.142 32.0596C171.349 32.0596 169.918 32.7653 168.851 34.1766C167.783 35.5498 167.249 37.5329 167.249 40.1267C167.249 42.7205 167.783 44.7238 168.851 46.135C169.918 47.5079 171.349 48.1947 173.142 48.1947C175.66 48.1947 177.357 46.9738 178.234 44.5327H188.647C187.808 48.2707 186.035 51.2083 183.326 53.344C180.618 55.4804 177.281 56.5479 173.313 56.5479C170.185 56.5479 167.401 55.8806 164.96 54.5453C162.557 53.2108 160.668 51.3031 159.296 48.8236C157.96 46.3449 157.293 43.4457 157.293 40.1267Z" fill="#1A1B1D"/>
<path d="M211.217 23.8204C214.879 23.8204 217.816 25.0411 220.028 27.4823C222.241 29.8854 223.347 33.2039 223.347 37.4381V56.0904H213.621V38.7538C213.621 36.6181 213.067 34.9585 211.961 33.7761C210.855 32.5936 209.367 32.0023 207.498 32.0023C205.629 32.0023 204.141 32.5936 203.036 33.7761C201.929 34.9585 201.376 36.6181 201.376 38.7538V56.0904H191.592V13.7504H201.376V28.455C202.368 27.0436 203.722 25.9184 205.438 25.0792C207.155 24.24 209.081 23.8204 211.217 23.8204Z" fill="#1A1B1D"/>
<path d="M0.506714 35.0952V0.364319H12.0862V18.2177C14.1072 17.4375 16.3034 17.0098 18.5996 17.0098C28.592 17.0098 36.6922 25.1103 36.6922 35.1027V56.0905H25.1131V35.1027C25.1131 31.5054 22.1969 28.5893 18.5996 28.5893C15.0039 28.5893 12.0887 31.5029 12.0862 35.0979C12.0862 35.0995 12.0862 35.1011 12.0862 35.1027V56.0905H0.506714V35.1027C0.506714 35.1002 0.506714 35.0977 0.506714 35.0952Z" fill="#0464FB"/>
<path d="M25.1131 11.9438V0.364319H36.6922V11.9438H25.1131Z" fill="#0464FB"/>
</svg>
